<?xml version="1.0" standalone="no"?>
<!DOCTYPE svg PUBLIC "-//W3C//DTD SVG 20010904//EN"
 "http://www.w3.org/TR/2001/REC-SVG-20010904/DTD/svg10.dtd">
<svg version="1.0" xmlns="http://www.w3.org/2000/svg"
 width="228.000000pt" height="221.000000pt" viewBox="0 0 228.000000 221.000000"
 preserveAspectRatio="xMidYMid meet">

<g transform="translate(0.000000,221.000000) scale(0.100000,-0.100000)"
fill="#000000" stroke="none">
<path d="M0 1105 l0 -1105 1140 0 1140 0 0 1105 0 1105 -1140 0 -1140 0 0
-1105z m1170 875 c-34 -11 -60 -11 -35 0 11 5 29 8 40 8 16 0 15 -2 -5 -8z
m-326 -59 c-2 -3 -12 3 -22 13 -16 17 -16 18 5 5 12 -7 20 -15 17 -18z m-110
-40 c3 -5 -3 -11 -15 -14 -16 -4 -18 -3 -8 9 13 16 16 17 23 5z m126 -27 c0
-6 14 -26 32 -43 28 -27 39 -31 88 -31 31 0 60 -4 66 -10 5 -5 42 -12 82 -15
72 -5 107 -17 150 -54 19 -17 21 -24 12 -41 -10 -18 -17 -141 -10 -180 1 -8
-1 -23 -5 -32 -5 -13 -2 -18 11 -18 29 -1 -3 -16 -50 -25 -37 -6 -39 -6 -26
12 10 13 7 12 -10 -4 -18 -15 -42 -22 -80 -25 -47 -2 -57 -7 -68 -28 -12 -23
-13 -23 -8 -2 2 12 0 22 -5 22 -5 0 -9 10 -10 23 0 21 -1 21 -8 2 -8 -19 -8
-19 -19 2 -10 19 -16 20 -58 11 -31 -7 -49 -7 -56 0 -13 13 -38 4 -38 -14 0
-8 -9 -14 -20 -14 -11 0 -20 -5 -20 -10 0 -6 -6 -9 -12 -8 -7 2 -12 -2 -11 -9
2 -7 -10 -11 -30 -10 -18 1 -31 7 -30 12 1 6 -4 16 -9 23 -17 20 -28 -5 -26
-58 1 -43 2 -44 5 -7 4 38 16 48 27 22 3 -9 12 -12 22 -8 11 4 15 2 11 -4 -5
-7 2 -10 18 -8 18 2 25 -2 25 -16 0 -9 12 -31 26 -48 24 -29 30 -31 98 -31 62
0 75 3 93 23 11 12 23 29 26 37 4 11 6 10 6 -4 1 -16 3 -16 17 -6 11 10 14 23
9 52 -6 34 -4 38 14 39 60 4 71 1 71 -15 0 -8 -6 -16 -12 -18 -9 -3 -13 -36
-13 -114 -1 -65 -6 -118 -13 -131 -16 -30 -16 -32 12 -43 14 -5 32 -20 40 -33
17 -25 34 -102 18 -79 -7 11 -10 11 -15 -2 -4 -9 -21 -22 -39 -31 -22 -9 -26
-14 -13 -14 35 2 45 -1 45 -11 0 -13 -55 -13 -98 -1 -23 7 -32 6 -32 -2 0 -7
-4 -6 -10 3 -7 11 -4 17 13 22 14 4 4 6 -30 7 -56 1 -83 -6 -83 -21 0 -6 6 -5
15 2 12 10 22 9 52 -6 21 -10 42 -17 47 -16 5 2 31 -3 58 -10 41 -10 48 -15
44 -31 -6 -24 3 -47 18 -47 18 0 17 -38 -1 -44 -13 -5 -12 -9 6 -25 11 -10 21
-24 21 -31 0 -24 -41 -70 -63 -70 -12 0 -39 -3 -60 -6 -38 -6 -38 -6 -18 -25
11 -11 25 -19 31 -19 5 0 10 -7 10 -17 0 -15 2 -15 18 0 27 24 87 20 102 -8
24 -45 -8 -123 -38 -93 -11 11 -32 3 -32 -13 0 -5 9 -9 20 -9 11 0 20 -4 20
-10 0 -5 11 -10 25 -10 29 0 31 -7 9 -31 -19 -21 -12 -49 11 -49 22 0 85 43
85 58 0 6 4 12 9 12 5 0 16 3 25 6 11 4 16 1 16 -10 0 -9 -4 -16 -9 -16 -12 0
-21 -28 -25 -79 -4 -51 -16 -66 -87 -101 -31 -16 -69 -44 -84 -62 l-28 -33
-48 53 c-46 50 -49 56 -49 109 0 43 -7 68 -31 114 -18 32 -35 59 -39 59 -11 0
-30 48 -30 78 -1 57 -46 157 -100 225 -63 78 -88 135 -97 218 -5 48 -9 59 -24
59 -42 0 -71 72 -87 215 -12 100 -11 128 2 137 7 5 7 8 -1 8 -7 0 -13 7 -13
15 0 8 9 15 21 15 11 0 17 -4 14 -10 -3 -5 0 -10 7 -10 9 0 9 -3 -2 -10 -8 -5
-10 -10 -5 -10 6 0 25 14 43 30 18 17 29 30 24 30 -12 0 -23 38 -12 45 8 5 5
46 -6 84 -5 16 -4 22 3 18 7 -5 9 0 6 13 -3 11 0 27 7 35 18 21 2 19 -18 -3
-10 -10 -13 -12 -9 -5 5 6 6 17 2 23 -3 5 3 24 15 40 12 17 18 35 14 42 -5 8
-1 8 10 -1 13 -11 16 -23 12 -43 -3 -17 -2 -27 4 -23 5 3 12 22 15 43 4 20 9
44 12 52 4 8 7 17 7 20 1 3 12 28 26 55 15 33 30 51 42 51 10 0 18 -6 18 -12z
m385 -44 c-10 -11 -22 -20 -28 -20 -5 0 1 9 14 20 31 25 37 25 14 0z m-512
-43 c4 3 7 2 7 -4 0 -5 -9 -18 -20 -28 -11 -10 -18 -20 -16 -24 2 -3 -10 -19
-27 -36 l-30 -30 22 39 c19 34 20 38 4 32 -14 -6 -13 -2 5 17 12 13 19 26 16
30 -3 3 -3 11 2 18 5 9 10 8 19 -4 7 -9 15 -14 18 -10z m-33 -251 c0 -2 -8
-10 -17 -17 -16 -13 -17 -12 -4 4 13 16 21 21 21 13z m635 -46 c-3 -5 -12 -10
-18 -10 -7 0 -6 4 3 10 19 12 23 12 15 0z m-1 -82 c-3 -4 -21 -12 -42 -17 -29
-9 -40 -8 -51 4 -9 9 -11 15 -4 15 6 0 13 -4 15 -10 2 -5 13 -4 28 4 27 14 62
17 54 4z m-368 -7 c-3 -5 1 -11 8 -14 8 -3 17 -1 19 6 3 9 8 8 20 -2 22 -18
22 -88 0 -113 -13 -14 -31 -18 -89 -18 -65 0 -75 3 -88 23 -20 30 -18 105 3
117 20 12 134 13 127 1z m311 -53 c-3 -8 -6 -5 -6 6 -1 11 2 17 5 13 3 -3 4
-12 1 -19z m50 -34 c2 -7 -10 -14 -26 -16 -17 -3 -29 -2 -26 0 3 3 0 12 -7 19
-10 12 -6 14 22 11 18 -2 35 -8 37 -14z m78 -24 c-10 -11 -25 -20 -34 -19 -10
0 -8 4 7 9 12 5 25 17 28 25 4 9 9 13 12 10 3 -2 -3 -14 -13 -25z m-18 -52
c14 -11 11 -37 -6 -48 -9 -5 -10 -10 -2 -14 17 -11 13 -36 -5 -36 -13 0 -15 8
-12 35 2 19 2 32 -1 30 -8 -9 -31 17 -31 35 0 14 6 17 23 13 12 -3 27 -10 34
-15z m-4 -147 c-4 -3 -11 -10 -15 -15 -4 -4 -6 1 -5 12 1 12 6 18 15 15 7 -3
10 -9 5 -12z m-372 -1001 c21 -12 25 -35 9 -45 -15 -9 -40 14 -40 36 0 22 4
23 31 9z"/>
<path d="M1102 1440 c0 -19 2 -27 5 -17 2 9 2 25 0 35 -3 9 -5 1 -5 -18z"/>
<path d="M1042 1088 c3 -7 15 -15 27 -16 16 -3 22 1 19 10 -3 7 -15 15 -27 16
-16 3 -22 -1 -19 -10z"/>
<path d="M920 650 c0 -5 5 -10 11 -10 5 0 7 5 4 10 -3 6 -8 10 -11 10 -2 0 -4
-4 -4 -10z"/>
<path d="M868 1348 c-16 -5 -28 -17 -28 -26 0 -12 3 -13 12 -4 9 9 15 9 25 0
8 -6 34 -12 59 -13 24 -1 48 -6 52 -10 4 -5 3 -6 -3 -3 -5 3 -18 -3 -27 -14
-20 -20 -12 -23 27 -8 15 6 23 15 19 21 -3 6 -1 15 6 19 20 12 5 37 -27 43
-45 9 -67 2 -73 -21 -4 -16 -9 -19 -20 -12 -13 9 -13 11 0 19 22 15 9 20 -22
9z"/>
</g>
</svg>
