<?xml version="1.0" standalone="no"?>
<!DOCTYPE svg PUBLIC "-//W3C//DTD SVG 20010904//EN"
 "http://www.w3.org/TR/2001/REC-SVG-20010904/DTD/svg10.dtd">
<svg version="1.0" xmlns="http://www.w3.org/2000/svg"
 width="120.000000pt" height="183.000000pt" viewBox="0 0 120.000000 183.000000"
 preserveAspectRatio="xMidYMid meet">

<g transform="translate(0.000000,183.000000) scale(0.100000,-0.100000)"
fill="#000000" stroke="none">
<path d="M0 1801 c0 -16 6 -32 13 -34 10 -4 10 -6 0 -6 -8 -1 -13 -16 -13 -41
0 -29 5 -42 20 -50 11 -6 18 -15 15 -21 -4 -5 1 -9 9 -9 8 0 13 -6 10 -13 -2
-7 4 -22 15 -34 15 -16 17 -23 8 -33 -9 -10 -9 -11 0 -6 7 4 13 3 13 -2 0 -6
9 -8 20 -5 13 3 22 -1 26 -12 4 -10 9 -13 13 -6 5 7 18 8 39 2 18 -6 32 -6 32
-1 0 15 71 24 91 12 15 -10 17 -9 12 4 -5 14 0 15 28 10 28 -5 30 -4 11 4 -19
8 -21 12 -10 29 6 11 17 17 23 15 5 -3 1 1 -9 10 -10 8 -23 13 -29 9 -6 -3 -7
-1 -3 5 4 7 19 13 34 13 17 1 21 3 10 6 -10 2 -18 9 -18 14 0 5 -3 8 -8 6 -9
-3 -12 6 -12 37 0 19 4 23 19 19 14 -3 19 0 17 11 -1 8 -6 19 -11 23 -4 4 -5
2 0 -5 6 -11 3 -12 -14 -3 -11 7 -20 17 -18 24 1 7 -4 11 -11 9 -8 -1 -11 2
-6 9 5 9 13 5 26 -10 10 -13 18 -20 18 -16 0 4 11 0 25 -9 14 -9 25 -13 25 -8
0 5 -20 22 -45 38 -25 15 -45 30 -45 33 0 4 -20 7 -45 8 -26 1 -43 -3 -40 -8
4 -5 1 -9 -4 -9 -6 0 -11 5 -11 10 0 6 -43 10 -110 10 l-110 0 0 -29z m340
-198 c-1 -17 -28 -43 -45 -43 -16 0 -15 3 6 24 25 25 39 32 39 19z"/>
<path d="M890 1819 c0 -5 -18 -21 -40 -35 -22 -15 -40 -31 -40 -37 0 -5 6 -5
14 2 10 9 15 8 19 -4 4 -8 13 -12 22 -9 9 4 16 0 16 -7 1 -8 3 -24 4 -36 1
-13 -3 -23 -9 -23 -7 0 -21 -7 -32 -15 -18 -14 -18 -14 5 -10 35 6 47 -6 20
-21 -13 -7 -18 -13 -11 -14 8 0 12 -6 10 -12 -6 -16 19 -41 32 -33 6 4 4 12
-5 21 -8 9 -13 20 -10 25 4 5 17 -2 31 -16 23 -23 33 -41 15 -31 -4 3 -17 -1
-27 -9 -18 -13 -18 -14 8 -20 24 -6 26 -10 17 -27 -9 -17 -8 -23 5 -30 9 -5
16 -16 16 -24 0 -8 5 -12 11 -9 6 4 8 12 6 19 -6 14 12 41 33 49 12 4 11 6 -2
6 -10 1 -18 9 -18 19 0 11 3 13 8 5 8 -12 56 -12 69 0 10 11 25 8 18 -3 -8
-12 0 -13 23 -1 9 5 24 12 33 14 9 3 19 19 22 35 3 16 14 38 24 48 14 13 19
37 21 106 l4 88 -92 0 c-50 0 -101 -5 -112 -11 -14 -8 -18 -8 -14 0 5 7 -10
10 -44 10 -27 -1 -50 -5 -50 -10z m15 -25 c-11 -8 -19 -19 -18 -24 1 -4 -4
-11 -12 -14 -8 -3 -15 -1 -15 4 0 9 48 50 59 50 3 0 -3 -8 -14 -16z m235 -226
c0 -4 -4 -8 -9 -8 -6 0 -12 4 -15 8 -3 5 1 9 9 9 8 0 15 -4 15 -9z m-175 -18
c-3 -5 -18 -10 -33 -9 l-27 1 25 8 c35 11 42 11 35 0z"/>
<path d="M840 1695 c-8 -9 -8 -15 -2 -15 12 0 26 19 19 26 -2 2 -10 -2 -17
-11z"/>
<path d="M247 1533 c-7 -11 -4 -34 6 -50 5 -7 6 -17 2 -22 -3 -5 -1 -12 4 -15
5 -4 12 3 16 14 3 11 10 20 15 20 5 0 7 12 6 28 -2 18 -10 28 -24 30 -11 2
-23 -1 -25 -5z"/>
<path d="M180 1500 c-9 -6 -10 -10 -3 -10 6 0 15 5 18 10 8 12 4 12 -15 0z"/>
<path d="M26 1484 c-4 -9 -4 -19 -2 -21 8 -8 26 8 26 23 0 19 -16 18 -24 -2z"/>
<path d="M1172 1483 c5 -25 28 -28 28 -4 0 12 -6 21 -16 21 -9 0 -14 -7 -12
-17z"/>
<path d="M426 1481 c-5 -7 4 -11 23 -11 19 0 43 -11 64 -30 34 -29 77 -40 77
-20 0 6 -5 10 -10 10 -6 0 -28 11 -50 25 -48 30 -95 42 -104 26z"/>
<path d="M738 1470 c-14 -11 -38 -24 -53 -30 -20 -8 -25 -14 -18 -21 12 -12
43 1 78 31 11 10 34 22 50 28 l30 10 -31 1 c-17 1 -43 -8 -56 -19z"/>
<path d="M748 1398 c-52 -22 -62 -38 -24 -38 14 0 32 -7 40 -16 9 -9 16 -11
16 -4 0 6 14 23 30 37 17 13 30 29 30 34 0 15 -42 9 -92 -13z m39 -24 c-3 -3
-12 -4 -19 -1 -8 3 -5 6 6 6 11 1 17 -2 13 -5z"/>
<path d="M414 1397 c-12 -7 -11 -12 10 -28 13 -10 30 -19 36 -19 7 0 19 -8 26
-17 13 -17 13 -17 14 0 0 9 5 17 11 17 5 0 8 4 5 9 -4 5 4 7 16 3 22 -5 23 -5
5 15 -20 23 -96 35 -123 20z"/>
<path d="M900 1166 l0 -125 -42 -3 c-43 -3 -43 -3 -46 -45 l-3 -43 45 0 46 0
0 -105 c0 -87 3 -105 15 -105 11 0 15 -12 16 -40 1 -22 3 -44 4 -50 1 -5 3
-37 4 -70 2 -85 20 -75 23 12 l3 73 18 -71 c12 -46 23 -71 33 -71 12 0 14 35
14 214 l0 213 45 0 45 0 0 45 0 45 -45 0 -45 0 0 125 0 125 -44 0 c-26 0 -46
-5 -49 -12 -4 -10 -6 -10 -6 0 -1 6 -8 12 -16 12 -13 0 -15 -20 -15 -124z
m100 -463 c0 -16 3 -39 6 -53 4 -19 3 -21 -4 -10 -15 22 -24 90 -12 90 6 0 10
-12 10 -27z"/>
<path d="M588 1245 c-57 -31 -41 -145 21 -145 57 0 90 19 97 56 9 48 -1 79
-31 92 -34 15 -54 15 -87 -3z"/>
<path d="M578 1035 c-3 -4 -7 -121 -7 -262 -2 -204 1 -254 11 -251 7 3 14 21
16 40 3 30 8 38 33 47 28 10 29 13 29 70 0 49 3 59 15 55 11 -5 15 -29 17
-107 2 -69 7 -102 16 -105 8 -2 12 11 12 47 0 44 3 51 20 51 17 0 20 -7 20
-51 0 -36 4 -49 13 -47 8 3 13 37 15 111 2 91 0 107 -13 107 -11 0 -15 -11
-15 -45 0 -38 -3 -45 -20 -45 -17 0 -20 7 -20 45 0 25 -3 45 -7 45 -5 0 -8 66
-8 147 l0 148 -60 3 c-34 2 -64 0 -67 -3z m46 -341 c11 -29 7 -64 -9 -64 -11
0 -15 11 -15 40 0 40 13 53 24 24z"/>
<path d="M242 940 c0 -14 2 -19 5 -12 2 6 2 18 0 25 -3 6 -5 1 -5 -13z"/>
<path d="M226 725 c-15 -39 -6 -74 24 -95 33 -24 44 -80 15 -80 -10 0 -15 10
-15 30 0 21 -5 30 -16 30 -11 0 -14 -9 -12 -36 4 -43 24 -60 61 -50 24 6 27
11 27 50 0 37 -5 48 -31 70 -20 17 -29 33 -27 48 5 32 28 35 28 4 0 -17 5 -26
16 -26 11 0 14 8 12 33 -3 29 -6 32 -39 35 -26 2 -38 -1 -43 -13z"/>
<path d="M340 725 c0 -8 7 -15 15 -15 12 0 15 -17 15 -93 0 -77 3 -94 15 -94
12 0 15 17 15 93 0 72 3 93 15 98 30 11 14 26 -30 26 -33 0 -45 -4 -45 -15z"/>
<path d="M462 633 l3 -108 33 0 c19 -1 32 4 32 12 0 7 -9 13 -20 13 -16 0 -20
7 -20 35 0 28 4 35 20 35 11 0 20 7 20 15 0 8 -9 15 -20 15 -16 0 -20 7 -20
30 0 23 4 30 20 30 11 0 20 7 20 15 0 11 -11 15 -35 15 l-36 0 3 -107z"/>
<path d="M830 630 l0 -109 35 1 c37 1 51 28 15 28 -16 0 -20 7 -20 35 0 28 4
35 20 35 11 0 20 7 20 15 0 8 -9 15 -20 15 -16 0 -20 7 -20 30 0 23 4 30 20
30 11 0 20 7 20 15 0 10 -11 15 -35 15 l-35 0 0 -110z"/>
<path d="M222 285 l3 -200 25 0 c24 0 25 2 30 92 l5 91 29 -94 c28 -91 30 -94
58 -92 15 1 28 5 28 8 0 3 -14 50 -31 103 l-30 98 30 88 c17 48 31 91 31 97 0
5 -12 9 -27 8 -25 -1 -29 -8 -59 -95 l-32 -94 -3 94 -4 94 -28 1 -27 2 2 -201z"/>
<path d="M493 482 c-23 -3 -23 -4 -23 -202 l0 -199 28 2 27 3 0 198 c0 109 -2
199 -5 200 -3 1 -15 0 -27 -2z"/>
<path d="M632 482 l-32 -3 2 -197 c3 -196 3 -197 26 -200 22 -3 22 -3 22 130
0 74 4 126 9 118 4 -8 18 -64 31 -125 13 -60 24 -111 24 -112 1 -1 16 -4 34
-8 l32 -5 0 199 c0 188 -1 199 -19 204 -11 3 -22 2 -25 -1 -3 -3 -7 -57 -7
-121 l-1 -116 -25 105 c-31 136 -31 136 -71 132z"/>
<path d="M880 470 c-18 -18 -20 -33 -20 -189 0 -164 1 -170 22 -185 31 -22
100 -20 129 3 21 17 24 29 27 110 l4 91 -46 0 c-42 0 -46 -2 -46 -25 0 -16 6
-25 15 -25 13 0 15 -11 13 -57 -2 -47 -6 -58 -22 -61 -10 -2 -22 0 -27 5 -14
14 -14 282 0 296 19 19 46 -5 49 -47 3 -34 6 -37 30 -34 25 3 26 6 24 53 -4
63 -26 85 -88 85 -31 0 -50 -6 -64 -20z"/>
<path d="M64 198 c-4 -6 -2 -14 4 -16 20 -6 13 -22 -9 -22 -17 0 -20 -5 -17
-37 2 -21 8 -37 13 -35 6 2 9 13 8 25 -2 13 0 16 4 7 10 -26 25 -40 35 -34 6
4 5 10 -3 15 -11 7 -10 9 4 9 9 0 17 -4 17 -10 0 -5 4 -10 8 -10 12 0 12 109
1 116 -5 3 -9 -7 -10 -23 0 -18 -3 -23 -7 -13 -4 8 -14 15 -22 15 -8 0 -14 6
-12 13 3 15 -5 16 -14 0z m56 -51 c8 -3 -5 -5 -30 -5 -25 0 -35 3 -22 5 12 2
22 10 22 16 0 9 2 9 8 1 4 -6 14 -14 22 -17z m-3 -23 c-3 -3 -12 -4 -19 -1 -8
3 -5 6 6 6 11 1 17 -2 13 -5z"/>
</g>
</svg>
