<?xml version="1.0" standalone="no"?>
<!DOCTYPE svg PUBLIC "-//W3C//DTD SVG 20010904//EN"
 "http://www.w3.org/TR/2001/REC-SVG-20010904/DTD/svg10.dtd">
<svg version="1.0" xmlns="http://www.w3.org/2000/svg"
 width="120.000000pt" height="183.000000pt" viewBox="0 0 120.000000 183.000000"
 preserveAspectRatio="xMidYMid meet">

<g transform="translate(0.000000,183.000000) scale(0.100000,-0.100000)"
fill="#000000" stroke="none">
<path d="M910 1798 c9 -7 42 -33 75 -57 73 -54 117 -101 111 -117 -3 -7 2 -18
10 -25 9 -7 13 -21 11 -31 -3 -10 -1 -16 3 -13 15 9 39 -135 44 -265 5 -123
-8 -260 -25 -260 -11 0 -12 39 -10 219 1 94 -4 154 -15 198 -9 35 -13 71 -9
81 3 9 3 13 -1 9 -4 -4 -20 16 -36 44 -16 28 -32 49 -35 46 -2 -3 5 -18 17
-34 20 -27 64 -172 55 -181 -2 -2 -16 9 -30 24 -22 24 -21 20 6 -18 32 -47 32
-48 26 -137 -4 -50 -2 -148 4 -219 9 -123 9 -134 -16 -232 -29 -120 -31 -137
-12 -121 8 6 20 43 28 83 11 61 14 67 17 38 2 -19 -1 -60 -7 -90 -22 -120 -23
-156 -7 -169 14 -12 16 -10 16 13 0 14 1 28 1 31 13 46 29 195 29 280 1 61 7
133 14 160 8 28 14 88 15 135 1 47 3 189 6 315 2 129 1 224 -4 216 -7 -11 -11
-10 -21 5 -11 18 -11 18 -4 -1 5 -11 9 -44 10 -73 1 -29 4 -56 8 -59 9 -9 7
-126 -3 -141 -6 -9 -14 9 -24 57 -9 38 -28 93 -42 121 -15 29 -25 61 -24 73 3
42 -1 80 -8 73 -4 -3 -6 -25 -4 -47 2 -36 0 -39 -16 -31 -10 6 -27 20 -37 31
-11 12 -24 21 -29 21 -6 0 -24 10 -41 23 -38 29 -70 46 -46 25z"/>
<path d="M265 1763 c-114 -103 -143 -133 -159 -166 -9 -21 -21 -37 -26 -37 -6
0 -10 -8 -10 -17 -1 -10 -12 -38 -26 -63 l-25 -45 5 54 c3 30 13 63 23 75 17
20 17 20 -1 6 -18 -14 -18 -13 -11 10 11 38 51 96 90 131 19 18 35 37 35 43 0
5 -7 1 -15 -10 -11 -15 -15 -16 -15 -4 -1 8 -6 4 -12 -10 -11 -24 -12 -24 -19
15 l-7 40 1 -40 c1 -52 -14 -81 -24 -45 -6 22 -7 20 -8 -11 -2 -60 -33 -71
-55 -19 -3 8 -3 2 0 -15 7 -36 8 -19 -2 -397 -6 -272 -5 -318 11 -400 23 -120
22 -118 40 -118 21 0 19 12 -16 147 -30 116 -31 121 -24 282 6 175 6 175 69
252 12 14 1 5 -22 -20 -37 -39 -43 -42 -38 -21 11 39 59 140 68 140 4 0 5 6 2
14 -3 8 5 24 19 36 14 12 23 28 21 35 -6 15 134 159 147 152 2 -1 3 0 1 2 -1
2 5 13 15 23 26 29 11 20 -32 -19z"/>
<path d="M216 1585 c4 -8 7 -15 9 -15 2 0 5 7 9 15 3 9 0 15 -9 15 -9 0 -12
-6 -9 -15z"/>
<path d="M270 1582 c0 -10 7 -19 15 -19 8 0 15 2 15 4 0 3 -7 11 -15 19 -13
14 -15 13 -15 -4z"/>
<path d="M386 1585 c-9 -26 -7 -32 5 -12 6 10 9 21 6 23 -2 3 -7 -2 -11 -11z"/>
<path d="M470 1579 c0 -11 5 -17 10 -14 6 4 7 11 4 17 -5 8 -1 9 10 5 10 -4
15 -3 11 3 -11 18 -35 11 -35 -11z"/>
<path d="M550 1580 c6 -11 12 -20 14 -20 2 0 2 9 -1 20 -3 11 -9 20 -15 20 -5
0 -4 -9 2 -20z"/>
<path d="M601 1584 c-1 -27 25 -27 27 0 1 15 -1 17 -7 7 -7 -11 -9 -11 -14 0
-3 9 -6 6 -6 -7z"/>
<path d="M662 1580 c0 -14 2 -19 5 -12 2 6 2 18 0 25 -3 6 -5 1 -5 -13z"/>
<path d="M707 1580 c-3 -12 0 -20 7 -20 6 0 12 9 12 20 0 11 -3 20 -7 20 -4 0
-9 -9 -12 -20z"/>
<path d="M764 1580 c2 -21 30 -19 32 3 1 12 1 13 -3 2 -5 -18 -20 -20 -26 -2
-2 7 -3 6 -3 -3z"/>
<path d="M836 1585 c4 -8 8 -15 10 -15 2 0 4 7 4 15 0 8 -4 15 -10 15 -5 0 -7
-7 -4 -15z"/>
<path d="M900 1580 c0 -11 2 -20 4 -20 2 0 6 9 9 20 3 11 1 20 -4 20 -5 0 -9
-9 -9 -20z"/>
<path d="M976 1586 c6 -16 4 -18 -12 -12 -15 6 -17 5 -6 -5 9 -10 15 -10 24
-1 9 9 9 15 -1 25 -10 10 -11 8 -5 -7z"/>
<path d="M752 1479 c-18 -12 -31 -27 -28 -34 2 -6 0 -18 -4 -25 -5 -8 -4 -22
2 -33 9 -17 8 -19 -7 -14 -9 4 -19 7 -21 7 -2 0 -4 16 -4 35 0 44 -24 47 -39
5 -5 -17 -17 -33 -25 -36 -12 -5 -13 -11 -6 -24 15 -27 13 -32 -12 -28 -19 2
-23 9 -20 33 1 17 -2 44 -7 60 -9 29 -9 29 -11 5 -1 -14 -5 -48 -9 -75 l-7
-50 32 0 c40 0 40 0 70 72 l24 58 0 -63 c0 -40 4 -61 10 -57 6 3 10 15 10 26
0 11 4 17 10 14 5 -3 15 3 21 13 11 18 14 18 40 3 37 -20 39 -58 5 -71 -33
-12 -40 -28 -12 -25 46 5 67 17 77 42 8 22 6 31 -18 55 -17 18 -33 26 -45 22
-29 -9 -36 42 -9 69 11 12 21 17 21 11 0 -5 9 -10 21 -11 14 -1 19 3 17 15 -5
25 -38 25 -76 1z"/>
<path d="M375 1481 c-3 -3 -23 -4 -43 -3 -36 3 -37 3 -15 -13 21 -15 23 -24
22 -101 -1 -65 -4 -86 -17 -93 -13 -7 -12 -10 6 -20 23 -12 25 -8 37 60 8 46
56 79 80 55 9 -8 23 -12 32 -9 15 6 14 7 -3 14 -15 6 -11 8 16 10 24 1 28 3
13 6 -32 6 -30 33 2 33 14 0 25 5 25 10 0 6 -13 10 -29 10 -23 0 -30 -6 -37
-27 -5 -21 -8 -23 -11 -11 -4 15 -9 14 -44 -9 -47 -31 -61 -23 -52 31 6 38 6
38 49 34 26 -2 43 1 41 7 -4 11 -64 25 -72 16z"/>
<path d="M477 1332 c-15 -2 -32 -13 -38 -24 -10 -19 -9 -20 7 -13 11 4 33 10
51 13 17 2 34 9 36 16 5 12 -10 15 -56 8z"/>
<path d="M687 1243 c-4 -3 -7 -20 -7 -37 0 -17 -4 -37 -9 -45 -7 -12 -13 -7
-27 22 -14 29 -20 34 -31 25 -12 -10 -12 -13 0 -20 12 -6 13 -16 7 -44 -5 -20
-5 -46 0 -58 5 -11 10 -15 11 -8 1 6 3 17 4 22 1 6 3 20 4 33 l1 22 20 -25
c11 -14 20 -37 20 -52 0 -15 4 -30 10 -33 6 -4 9 33 9 100 -1 58 -2 105 -3
105 -2 0 -6 -3 -9 -7z"/>
<path d="M938 1219 c-21 -11 -39 -25 -39 -32 -1 -6 -3 -21 -4 -33 -2 -16 8
-25 46 -40 27 -10 49 -24 49 -31 0 -16 -39 -43 -62 -43 -10 0 -18 -7 -18 -16
0 -10 -6 -14 -15 -11 -8 4 -16 3 -19 -1 -9 -15 47 -12 80 4 29 14 64 60 64 86
0 4 -17 16 -37 26 -21 9 -41 22 -45 27 -11 15 -10 27 2 20 6 -3 13 1 16 9 3 9
17 16 31 16 13 0 22 4 19 9 -4 5 -3 11 1 14 5 2 3 3 -3 1 -6 -1 -15 1 -20 6
-5 5 -26 0 -46 -11z"/>
<path d="M375 1220 c-3 -5 2 -10 13 -10 17 0 18 -7 14 -85 -4 -71 -2 -85 10
-85 12 0 15 11 13 48 -5 82 7 125 35 133 18 5 11 7 -27 8 -28 1 -55 -3 -58 -9z"/>
<path d="M835 1216 c-15 -17 -35 -79 -35 -110 0 -40 16 -23 24 24 6 40 26 47
26 9 0 -10 4 -19 10 -19 5 0 7 -7 4 -15 -9 -22 7 -41 18 -21 6 10 4 32 -4 58
-19 65 -32 87 -43 74z"/>
<path d="M172 1203 c-8 -3 -11 -16 -6 -38 5 -28 2 -34 -15 -40 -24 -7 -28 -25
-6 -25 24 0 28 -24 11 -65 -20 -48 -21 -47 9 -33 14 6 25 15 25 20 0 4 6 8 14
8 7 0 19 7 26 15 10 12 8 16 -14 25 -14 5 -26 13 -26 18 0 14 22 31 35 26 18
-7 31 16 15 26 -7 5 -22 7 -32 5 -19 -4 -22 3 -12 29 4 10 19 16 43 17 29 0
32 2 16 9 -22 10 -63 11 -83 3z"/>
<path d="M535 1186 c-10 -15 -15 -37 -13 -51 6 -28 -3 -32 -21 -11 -9 11 -10
20 -1 35 9 18 7 23 -16 31 -31 12 -31 12 -34 -20 -5 -54 1 -100 11 -100 7 0
10 12 7 30 -3 17 -3 30 -1 30 14 0 60 -45 57 -55 -3 -7 -1 -16 5 -20 7 -4 11
8 11 34 0 22 5 42 13 44 9 4 9 6 -1 6 -10 1 -10 6 -1 22 14 28 28 9 30 -41 l1
-35 8 28 c10 32 0 66 -23 86 -13 10 -18 8 -32 -13z m-50 -26 c-3 -5 -11 -10
-16 -10 -6 0 -7 5 -4 10 3 6 11 10 16 10 6 0 7 -4 4 -10z"/>
<path d="M721 1143 c1 -53 2 -55 12 -30 13 31 38 38 30 7 -3 -11 -1 -20 5 -20
11 0 22 33 22 68 0 12 -4 22 -10 22 -5 0 -10 -9 -10 -21 0 -14 -5 -19 -17 -17
-12 2 -17 11 -15 26 2 12 -2 22 -7 22 -7 0 -11 -23 -10 -57z"/>
<path d="M286 1138 c3 -18 10 -42 15 -53 7 -17 8 -17 8 8 1 34 14 35 35 2 24
-37 35 -30 29 18 -6 45 -13 59 -20 40 -6 -18 -28 -16 -43 2 -21 25 -32 17 -24
-17z"/>
<path d="M546 964 c-9 -8 -16 -23 -16 -32 0 -12 -2 -14 -8 -4 -6 9 -15 4 -35
-16 -23 -24 -26 -33 -18 -53 10 -25 45 -59 61 -59 6 0 10 -5 10 -11 0 -6 -6
-9 -12 -7 -7 3 -26 -1 -43 -9 l-30 -14 30 5 c35 5 49 -1 58 -26 9 -25 -26 -41
-72 -33 -36 6 -36 6 -13 -10 13 -10 34 -15 48 -12 27 5 34 -17 8 -27 -24 -9
-46 -7 -39 3 3 6 -3 15 -13 20 -21 11 -42 -2 -42 -26 0 -7 -3 -12 -7 -12 -22
4 -32 -3 -27 -16 7 -18 -7 -20 -24 -3 -9 9 -12 9 -12 0 0 -7 -3 -12 -7 -11
-16 2 -53 -14 -53 -23 0 -5 -5 -6 -12 -2 -8 5 -9 2 -5 -10 4 -10 3 -15 -3 -11
-6 3 -10 -2 -11 -12 0 -11 -3 -13 -6 -5 -6 15 -45 -25 -70 -72 -12 -22 -17
-26 -24 -15 -5 10 -3 16 9 21 20 8 13 9 -47 12 l-44 2 33 -28 c33 -27 33 -28
15 -48 -10 -11 -14 -20 -9 -21 5 0 -1 -4 -14 -9 -32 -13 -27 -31 7 -24 17 4
41 -1 61 -11 18 -9 44 -15 59 -12 14 3 41 -1 60 -9 18 -8 36 -14 40 -14 8 0
31 50 31 66 0 7 8 10 20 7 11 -3 27 0 35 7 22 18 20 -7 -6 -64 l-20 -46 28
-51 c29 -54 65 -81 84 -62 7 7 1 18 -20 36 -17 14 -33 38 -37 53 l-7 28 26
-17 c14 -9 38 -17 52 -17 18 0 25 -5 25 -19 0 -11 5 -23 10 -26 6 -4 8 -11 4
-16 -3 -5 -9 -7 -13 -5 -4 3 -8 -2 -8 -10 0 -8 6 -13 13 -10 9 3 11 -2 8 -17
-3 -12 -5 -51 -6 -87 0 -54 -2 -59 -8 -30 -5 22 -8 27 -9 13 0 -12 -3 -28 -6
-35 -5 -11 7 -15 50 -17 53 -2 55 -1 51 21 -3 13 -8 40 -11 61 -3 21 -9 45
-12 53 -3 8 1 14 11 14 19 0 19 2 5 34 -13 27 -4 100 11 91 6 -3 7 1 4 10 -6
14 -8 14 -20 -2 -15 -21 -15 -21 -18 30 -2 23 0 33 5 25 7 -10 9 -10 9 1 0 9
9 5 25 -11 18 -18 32 -24 55 -20 17 2 30 0 30 -6 0 -18 -24 -67 -37 -75 -16
-10 -36 -74 -29 -94 9 -22 32 -1 39 36 6 29 64 112 82 118 20 6 38 -16 36 -44
-8 -87 -6 -118 9 -118 11 0 15 12 16 45 1 25 7 64 13 88 7 23 9 46 7 51 -5 7
-38 17 -82 23 -5 1 -8 14 -6 30 4 27 14 33 54 29 9 -1 19 3 23 9 3 6 10 8 15
5 5 -3 14 3 20 14 8 17 15 18 38 10 40 -14 92 -72 96 -108 4 -33 -15 -55 -69
-85 l-30 -17 35 5 c70 9 94 21 86 42 -3 8 1 17 9 20 17 7 20 56 5 83 -5 10
-33 36 -62 58 -29 23 -72 60 -95 82 -24 23 -43 36 -43 29 0 -8 -3 -9 -10 -2
-11 11 -3 44 10 44 5 0 18 -14 30 -30 26 -36 35 -37 55 -6 21 32 6 62 -35 71
-39 9 -40 11 -29 70 6 31 6 52 0 58 -6 6 -9 3 -9 -9 3 -31 -32 -147 -50 -169
-10 -11 -25 -26 -35 -34 -15 -12 -17 -12 -11 4 6 14 3 16 -17 11 l-24 -7 26
23 c14 13 35 29 45 35 10 7 15 12 9 11 -11 -1 -47 13 -55 21 -3 4 -17 12 -33
19 -25 11 -28 10 -39 -12 -9 -21 -13 -23 -29 -13 -25 15 -24 30 0 22 14 -4 21
0 26 15 8 24 26 21 94 -16 24 -13 44 -24 46 -24 1 0 7 32 14 70 l13 70 -49 60
c-44 55 -74 73 -87 52 -3 -5 -8 -24 -11 -43 -4 -19 -10 -52 -15 -74 -8 -40 -8
-40 -9 -7 -1 29 -4 33 -23 28 -16 -4 -14 -2 5 6 15 7 27 18 27 26 0 7 -4 11
-9 7 -5 -3 -13 0 -17 6 -4 7 -3 9 3 6 6 -4 18 9 29 28 10 19 25 36 33 37 9 2
-2 14 -27 31 -37 24 -42 25 -43 10 0 -11 -5 -7 -11 10 -8 23 -15 28 -34 24
-13 -2 -21 0 -18 4 9 16 -24 10 -40 -7z m84 -84 c0 -5 -2 -10 -4 -10 -3 0 -8
5 -11 10 -3 6 -1 10 4 10 6 0 11 -4 11 -10z m190 -180 c0 -37 -14 -53 -39 -45
-12 3 -19 11 -16 16 4 5 -1 9 -9 9 -12 0 -15 12 -15 61 l1 61 39 -38 c25 -25
39 -47 39 -64z m-172 -7 c2 -16 -5 -26 -28 -38 -39 -20 -64 -58 -55 -86 5 -14
4 -19 -4 -15 -32 20 -1 90 55 123 18 11 18 12 2 43 -10 17 -18 37 -18 43 1 19
44 -45 48 -70z m-30 -98 c2 -19 -2 -35 -8 -35 -5 0 -10 16 -10 35 0 19 4 35 8
35 4 0 9 -16 10 -35z m-273 -34 c-8 -14 54 -57 76 -53 4 1 15 -8 25 -20 l19
-21 -40 7 c-22 4 -41 12 -43 17 -2 5 -9 9 -16 9 -26 0 -57 56 -40 73 9 9 26
-2 19 -12z m365 -60 c0 -5 -7 -16 -15 -24 -8 -8 -12 -17 -10 -21 3 -3 0 -2 -6
3 -7 6 -7 15 3 30 13 22 28 28 28 12z m-204 -125 c8 -8 14 -23 14 -33 0 -15 2
-16 10 -3 8 13 10 13 10 -2 0 -9 8 -22 18 -27 9 -6 12 -11 5 -11 -6 0 -14 -8
-16 -17 -3 -11 -5 -5 -6 12 -1 25 -3 27 -12 13 -13 -23 -26 -23 -68 3 -30 18
-33 22 -18 31 10 5 23 6 30 2 9 -5 9 -4 0 6 -12 14 -7 40 9 40 5 0 16 -6 24
-14z"/>
<path d="M1192 928 c-1 -15 -7 -59 -14 -97 -12 -69 -8 -95 13 -74 6 6 8 48 6
104 -1 52 -4 82 -5 67z"/>
<path d="M343 874 l-28 -25 33 22 c17 13 32 24 32 26 0 8 -11 1 -37 -23z"/>
<path d="M778 868 c5 -5 16 -8 23 -6 8 3 3 7 -10 11 -17 4 -21 3 -13 -5z"/>
<path d="M420 845 c-22 -23 -22 -27 -8 -41 22 -22 61 1 52 31 -10 34 -19 36
-44 10z"/>
<path d="M355 773 c-14 -21 -15 -30 -6 -45 10 -16 8 -18 -16 -19 -31 -1 -72
-7 -90 -14 -19 -7 -16 -20 13 -55 23 -27 29 -29 43 -17 9 8 30 19 47 26 46 18
61 51 39 85 -24 36 -10 47 18 15 12 -14 18 -19 14 -12 -5 6 -6 21 -2 32 3 11
0 23 -6 27 -9 5 -10 2 -6 -12 7 -18 6 -18 -7 -1 -17 22 -21 22 -41 -10z"/>
<path d="M1 673 c-1 -42 2 -53 15 -53 12 0 14 7 8 33 -14 67 -23 74 -23 20z"/>
<path d="M1183 555 c-8 -25 -9 -43 -3 -49 13 -13 22 15 18 56 l-3 33 -12 -40z"/>
<path d="M3 166 c1 -22 8 -41 14 -44 17 -5 16 15 -2 53 l-14 30 2 -39z"/>
<path d="M941 124 c0 -11 3 -14 6 -6 3 7 2 16 -1 19 -3 4 -6 -2 -5 -13z"/>
<path d="M961 124 c0 -11 3 -14 6 -6 3 7 2 16 -1 19 -3 4 -6 -2 -5 -13z"/>
<path d="M1000 135 c0 -6 9 -18 20 -28 19 -16 20 -16 20 11 0 21 -2 24 -10 12
-9 -13 -11 -13 -20 0 -5 8 -10 10 -10 5z"/>
<path d="M1051 124 c0 -11 3 -14 6 -6 3 7 2 16 -1 19 -3 4 -6 -2 -5 -13z"/>
<path d="M1071 124 c0 -11 3 -14 6 -6 3 7 2 16 -1 19 -3 4 -6 -2 -5 -13z"/>
<path d="M1091 124 c0 -11 3 -14 6 -6 3 7 2 16 -1 19 -3 4 -6 -2 -5 -13z"/>
<path d="M1192 120 c0 -14 2 -19 5 -12 2 6 2 18 0 25 -3 6 -5 1 -5 -13z"/>
<path d="M520 101 c0 -5 5 -13 10 -16 6 -3 10 -2 10 4 0 5 -4 13 -10 16 -5 3
-10 2 -10 -4z"/>
</g>
</svg>
