<?xml version="1.0" standalone="no"?>
<!DOCTYPE svg PUBLIC "-//W3C//DTD SVG 20010904//EN"
 "http://www.w3.org/TR/2001/REC-SVG-20010904/DTD/svg10.dtd">
<svg version="1.0" xmlns="http://www.w3.org/2000/svg"
 width="120.000000pt" height="183.000000pt" viewBox="0 0 120.000000 183.000000"
 preserveAspectRatio="xMidYMid meet">

<g transform="translate(0.000000,183.000000) scale(0.100000,-0.100000)"
fill="#000000" stroke="none">
<path d="M0 1333 l0 -498 26 37 c25 34 76 59 91 44 4 -3 -3 -6 -15 -6 -54 0
-98 -80 -80 -147 19 -72 121 -110 169 -62 23 23 23 80 -1 87 -12 4 -13 2 -2
-9 18 -20 15 -57 -7 -69 -63 -33 -141 15 -141 88 0 25 6 44 17 54 24 20 71 28
86 14 7 -6 17 -11 22 -11 6 -1 29 -7 53 -15 37 -12 42 -16 38 -39 -4 -29 9
-61 26 -61 7 0 7 4 0 13 -15 17 -3 87 14 87 7 0 20 7 28 16 15 14 16 13 16
-11 0 -30 -17 -51 -46 -57 -18 -5 -18 -5 1 -13 28 -12 35 -26 24 -47 -6 -11
-6 -18 0 -18 5 0 11 7 15 15 3 8 12 12 21 9 8 -3 15 -1 15 5 0 6 -4 11 -10 11
-13 0 -13 26 2 67 14 37 35 39 30 2 -9 -73 -10 -119 -3 -119 4 0 13 -11 19
-25 13 -27 39 -32 75 -13 12 6 29 14 37 18 8 4 17 20 20 36 3 16 9 27 14 24 5
-3 12 5 17 17 5 14 14 21 23 17 9 -4 20 5 31 25 8 17 22 31 30 31 8 0 15 6 15
13 0 8 11 19 25 25 l25 12 -1 -72 c-1 -46 -6 -77 -15 -85 -17 -18 -34 -8 -34
18 0 11 -4 17 -10 14 -6 -3 -10 -21 -10 -38 0 -25 -3 -29 -10 -17 -9 13 -12
12 -25 -5 -9 -11 -21 -27 -28 -35 -7 -8 -11 -23 -9 -32 2 -10 -1 -18 -7 -18
-17 0 -1 -29 21 -36 12 -3 17 -12 14 -20 -4 -11 -1 -12 13 -5 10 6 22 6 27 2
5 -5 18 -11 29 -14 18 -4 17 -5 -3 -6 -41 -2 -12 -21 31 -20 23 0 36 3 30 6
-26 10 -12 22 30 26 25 2 9 4 -38 5 -50 2 -75 6 -66 11 7 5 10 14 7 20 -4 6
-2 11 3 11 6 0 11 -5 11 -10 0 -6 8 -5 19 2 15 9 26 9 48 -1 18 -8 62 -13 121
-12 67 2 92 -1 87 -9 -4 -7 1 -6 14 2 12 7 21 16 21 20 0 5 10 8 23 8 22 0 40
16 63 55 6 10 18 23 28 29 14 9 23 5 47 -24 16 -19 29 -40 29 -47 0 -32 -196
-95 -292 -94 -108 1 -231 -10 -246 -22 -7 -5 -15 -7 -19 -3 -3 3 0 6 8 7 8 0
6 4 -6 9 -19 8 -19 9 -1 9 15 1 17 4 9 12 -7 7 -52 12 -112 13 -56 0 -101 4
-101 9 0 4 -57 7 -127 8 -81 0 -121 4 -108 9 20 8 20 9 -1 9 -11 1 -29 -6 -40
-14 -21 -16 -59 -20 -50 -6 4 5 -3 7 -15 4 -16 -4 -17 -8 -7 -14 8 -6 -2 -9
-29 -9 -25 0 -43 -5 -43 -11 0 -6 7 -8 16 -5 8 3 13 2 10 -3 -3 -5 40 -11 97
-15 56 -4 167 -14 247 -23 187 -21 587 -23 728 -4 l102 13 0 674 0 674 -600 0
-600 0 0 -497z m765 465 c4 4 5 0 4 -8 -2 -8 12 -31 30 -50 22 -24 29 -28 22
-12 -7 12 -9 22 -6 22 3 0 15 -19 25 -42 11 -24 20 -36 20 -27 0 9 6 22 13 28
12 9 12 3 1 -37 -10 -37 -10 -49 0 -57 7 -5 19 -27 26 -47 8 -21 18 -38 23
-38 11 0 3 84 -12 123 -6 15 -8 27 -6 27 8 0 27 -51 32 -85 16 -116 -15 -181
-109 -230 -43 -23 -61 -27 -91 -21 -34 6 -53 26 -26 26 7 0 22 11 35 25 12 13
35 27 50 29 28 5 44 21 44 44 0 6 -4 12 -10 12 -5 0 -10 -7 -10 -15 0 -8 -4
-15 -10 -15 -5 0 -10 9 -10 19 0 10 -7 21 -15 25 -8 3 -15 10 -15 17 0 6 7 8
16 5 16 -6 12 6 -13 35 -12 14 -12 21 1 50 13 32 14 32 16 9 l1 -25 10 24 c11
27 9 82 -3 75 -4 -3 -8 -15 -9 -27 0 -21 -1 -21 -8 -2 -4 10 -7 30 -5 42 3 27
-22 32 -29 6 -3 -11 -5 -7 -6 10 -1 17 -7 27 -17 27 -18 0 -44 23 -44 40 0 16
42 29 61 19 9 -4 20 -5 24 -1z m-110 -38 c3 -5 1 -10 -4 -10 -6 0 -11 5 -11
10 0 6 2 10 4 10 3 0 8 -4 11 -10z m-507 -77 c5 -16 13 -36 17 -45 5 -13 2
-18 -9 -18 -9 0 -16 6 -15 13 1 6 -3 25 -9 40 -14 34 -15 37 -3 37 5 0 14 -12
19 -27z m-35 -25 c-4 -19 -3 -20 6 -8 9 12 11 11 11 -7 0 -16 -6 -23 -20 -23
-22 0 -25 12 -10 41 14 25 19 24 13 -3z m624 -10 c-3 -7 -5 -2 -5 12 0 14 2
19 5 13 2 -7 2 -19 0 -25z m-11 -44 c-5 -17 -3 -23 4 -19 5 3 10 1 10 -5 0 -7
-7 -9 -16 -6 -9 3 -20 6 -25 6 -5 0 -9 7 -9 16 0 10 6 14 15 10 9 -3 15 0 15
9 0 8 3 15 6 15 3 0 3 -12 0 -26z m-556 -12 c0 -4 -10 -9 -22 -9 -18 -2 -20 0
-8 7 18 12 30 13 30 2z m307 -17 c-6 -7 -15 -11 -18 -9 -11 7 -55 -88 -69
-148 -7 -32 -16 -55 -20 -53 -4 2 -8 -44 -9 -103 -1 -59 -6 -123 -10 -142 -6
-24 -8 -3 -6 70 l2 105 -13 -55 c-7 -30 -16 -75 -19 -100 -13 -104 -55 -171
-104 -169 -16 1 -19 3 -9 6 13 3 16 16 15 64 -2 57 0 61 34 92 32 27 40 44 58
118 17 69 19 91 10 117 -9 26 -8 37 5 57 9 13 16 31 16 39 0 23 102 121 128
123 17 1 19 -1 9 -12z m-322 -15 c3 -5 0 -10 -7 -11 -10 0 -10 -2 0 -6 6 -2
12 -14 12 -24 0 -11 -5 -17 -10 -14 -6 4 -8 11 -5 16 4 5 1 9 -4 9 -6 0 -11 9
-11 20 0 21 15 27 25 10z m610 -39 c-10 -16 -25 -3 -25 22 0 20 1 20 16 5 9
-9 13 -21 9 -27z m-285 -21 c-6 -11 -13 -20 -16 -20 -2 0 0 9 6 20 6 11 13 20
16 20 2 0 0 -9 -6 -20z m-320 -19 c0 -10 -26 -9 -36 2 -4 4 2 7 14 7 12 0 22
-4 22 -9z m-5 -21 c3 -5 -1 -10 -10 -10 -9 0 -13 5 -10 10 3 6 8 10 10 10 2 0
7 -4 10 -10z m253 -293 c2 -56 0 -112 -5 -124 -5 -13 -8 27 -9 103 -1 68 1
124 5 124 3 0 7 -46 9 -103z m492 57 c0 -14 -4 -23 -10 -19 -5 3 -10 15 -10
26 0 10 5 19 10 19 6 0 10 -12 10 -26z m-563 -181 c-3 -10 -5 -4 -5 12 0 17 2
24 5 18 2 -7 2 -21 0 -30z m724 5 c1 -22 1 -22 9 2 l8 25 1 -27 c1 -38 -15
-43 -28 -8 -6 18 -6 30 0 30 5 0 9 -10 10 -22z m-724 -50 c-3 -8 -6 -5 -6 6
-1 11 2 17 5 13 3 -3 4 -12 1 -19z m-294 -13 c-3 -9 -8 -14 -10 -11 -3 3 -2 9
2 15 9 16 15 13 8 -4z m271 -33 c-4 -12 -10 -22 -15 -22 -5 0 -9 -8 -9 -17 0
-15 2 -16 10 -3 5 8 12 12 15 8 9 -8 -44 -48 -64 -48 -9 0 -36 10 -61 21 -44
20 -44 21 -21 30 14 6 30 8 37 5 7 -3 15 0 18 7 5 9 7 9 12 0 8 -18 25 -16 18
2 -4 8 -1 15 4 15 6 0 13 -8 15 -17 3 -13 5 -12 6 5 0 13 6 20 11 17 6 -3 10
4 10 16 0 15 3 20 10 13 5 -5 7 -19 4 -32z m746 20 c0 -5 -7 -9 -15 -9 -8 0
-15 4 -15 9 0 4 7 8 15 8 8 0 15 -4 15 -8z m-139 -33 c-9 -22 -10 -22 -10 -3
-1 11 2 24 6 27 12 12 14 0 4 -24z m-39 -61 c-2 -38 -9 -68 -14 -68 -5 0 -6 5
-3 10 3 6 -1 10 -9 10 -9 0 -16 -4 -16 -10 0 -22 -30 -9 -36 16 -11 44 7 86
44 98 18 7 31 14 29 17 -2 4 -1 4 3 0 4 -3 5 -36 2 -73z m-441 45 c-25 -44
-29 -47 -28 -20 1 14 5 23 9 21 4 -2 9 0 13 6 11 18 16 11 6 -7z m335 -80 c-6
-77 -16 -112 -16 -57 0 22 -3 26 -10 14 -8 -12 -10 -9 -10 13 0 34 3 43 13 39
5 -1 6 2 2 8 -3 6 -11 8 -16 5 -5 -4 -9 1 -9 9 0 9 3 15 8 15 20 -3 32 2 32
16 0 8 3 15 6 15 3 0 3 -35 0 -77z m-304 22 c-8 -16 -9 -16 -15 -1 -4 10 -3
15 3 11 6 -3 10 -1 10 6 0 7 3 10 6 6 3 -3 2 -13 -4 -22z m48 -101 c0 -17 -22
-14 -28 4 -2 7 3 12 12 12 9 0 16 -7 16 -16z m-94 -14 c13 0 54 -55 54 -72 0
-5 -9 -8 -20 -8 -29 0 -60 39 -59 74 0 17 3 25 6 19 2 -7 11 -13 19 -13z
m-178 -217 c-10 -2 -28 -2 -40 0 -13 2 -5 4 17 4 22 1 32 -1 23 -4z m135 0
c-7 -2 -21 -2 -30 0 -10 3 -4 5 12 5 17 0 24 -2 18 -5z m220 -50 c-7 -2 -21
-2 -30 0 -10 3 -4 5 12 5 17 0 24 -2 18 -5z"/>
<path d="M770 1570 c0 -5 5 -10 10 -10 6 0 10 5 10 10 0 6 -4 10 -10 10 -5 0
-10 -4 -10 -10z"/>
<path d="M830 1500 c0 -5 5 -10 11 -10 5 0 7 5 4 10 -3 6 -8 10 -11 10 -2 0
-4 -4 -4 -10z"/>
<path d="M402 1512 c-11 -15 -23 -46 -26 -67 l-6 -40 14 43 c8 23 21 54 30 67
22 34 12 32 -12 -3z"/>
<path d="M301 1184 c0 -11 3 -14 6 -6 3 7 2 16 -1 19 -3 4 -6 -2 -5 -13z"/>
<path d="M294 1146 c-3 -8 -4 -23 -2 -33 3 -11 6 -6 9 15 6 34 2 42 -7 18z"/>
<path d="M248 1120 c-24 -14 -32 -64 -16 -95 14 -25 15 -25 31 -7 17 19 21 38
19 85 -2 29 -8 32 -34 17z m14 -82 c-7 -7 -12 -8 -12 -2 0 14 12 26 19 19 2
-3 -1 -11 -7 -17z"/>
<path d="M0 599 c0 -12 5 -19 12 -17 18 6 20 25 3 31 -10 5 -15 0 -15 -14z"/>
<path d="M885 540 c-7 -12 2 -12 30 0 19 8 19 9 -2 9 -12 1 -25 -3 -28 -9z"/>
<path d="M541 355 c1 -22 3 -32 6 -22 2 9 8 17 13 17 5 0 11 -8 13 -17 3 -10
5 0 5 22 0 29 -2 34 -7 20 -8 -19 -8 -19 -19 0 -10 17 -11 14 -11 -20z"/>
<path d="M631 353 c1 -21 3 -30 6 -20 2 9 9 17 14 17 5 0 9 9 9 20 0 11 -7 20
-15 20 -11 0 -15 -10 -14 -37z"/>
<path d="M740 355 c0 -19 4 -35 8 -35 4 0 6 16 4 35 -2 19 -6 35 -8 35 -2 0
-4 -16 -4 -35z"/>
<path d="M1077 383 c-2 -5 0 -21 4 -38 7 -29 7 -29 8 8 1 35 -3 46 -12 30z"/>
<path d="M1110 357 c0 -20 3 -37 8 -37 9 0 8 57 -1 67 -4 3 -7 -10 -7 -30z"/>
<path d="M781 348 l1 -33 8 30 7 30 5 -30 5 -30 2 33 c1 22 -3 32 -14 32 -10
0 -15 -10 -14 -32z"/>
<path d="M851 368 c0 -10 -5 -18 -11 -18 -5 0 -7 -7 -3 -16 5 -15 7 -15 15 0
5 9 7 24 5 34 -4 16 -5 16 -6 0z"/>
<path d="M880 350 c0 -20 5 -30 15 -30 8 0 15 5 15 11 0 5 -4 7 -10 4 -5 -3
-10 -1 -10 4 0 6 5 11 10 11 6 0 10 7 10 15 0 8 -7 15 -15 15 -10 0 -15 -10
-15 -30z"/>
<path d="M937 373 c-13 -13 -7 -53 8 -53 8 0 15 5 15 11 0 5 -4 7 -10 4 -5 -3
-10 3 -10 15 0 12 5 18 10 15 6 -3 10 -1 10 4 0 12 -13 14 -23 4z"/>
<path d="M980 350 c0 -16 2 -30 4 -30 2 0 6 14 8 30 3 17 1 30 -4 30 -4 0 -8
-13 -8 -30z"/>
<path d="M1020 369 c0 -5 5 -7 10 -4 6 3 10 -4 10 -17 0 -18 -2 -20 -10 -8 -8
13 -10 12 -10 -2 0 -10 7 -18 15 -18 10 0 15 10 15 30 0 20 -5 30 -15 30 -8 0
-15 -5 -15 -11z"/>
<path d="M165 240 c-60 -4 -122 -8 -137 -9 l-28 -1 0 -115 0 -115 600 0 600 0
0 119 0 118 -52 7 c-69 8 -841 5 -983 -4z m29 -152 c8 -14 7 -21 -6 -34 -30
-30 -75 9 -48 42 16 18 39 15 54 -8z m76 12 c0 -5 -7 -10 -15 -10 -8 0 -15 -7
-15 -15 0 -8 7 -15 15 -15 8 0 15 -5 15 -11 0 -16 -31 -7 -43 13 -8 12 -7 21
2 32 15 18 41 22 41 6z m40 -7 c11 -10 20 -25 20 -35 0 -26 -20 -22 -21 5 l-2
22 -4 -22 c-7 -36 -23 -27 -23 12 0 40 2 41 30 18z m260 -18 c0 -29 -4 -35
-20 -35 -29 0 -36 27 -14 50 27 27 34 24 34 -15z m134 -5 c1 -27 -2 -30 -24
-28 -32 4 -40 37 -11 45 12 3 21 10 21 16 0 25 13 -6 14 -33z m126 30 c0 -5
-7 -10 -15 -10 -8 0 -15 -7 -15 -15 0 -8 7 -15 15 -15 8 0 15 -5 15 -11 0 -16
-31 -7 -43 13 -8 12 -7 21 2 32 15 18 41 22 41 6z m60 0 c0 -5 7 -10 15 -10
10 0 15 -9 14 -27 -1 -17 -3 -21 -6 -10 -5 19 -24 24 -20 5 1 -7 -9 -12 -23
-12 -20 -1 -26 4 -28 28 -3 20 0 27 10 24 7 -3 12 -12 10 -22 -2 -9 2 -16 9
-16 7 0 9 10 7 25 -3 14 -1 25 3 25 5 0 9 -4 9 -10z m120 -25 c0 -19 -4 -35
-10 -35 -5 0 -10 16 -10 35 0 19 5 35 10 35 6 0 10 -16 10 -35z m36 15 c9 0
14 -10 13 -27 -1 -17 -3 -21 -6 -10 -6 22 -20 22 -26 0 -3 -10 -5 0 -5 22 0
22 2 34 5 28 2 -7 11 -13 19 -13z m-668 -28 c3 -17 -2 -22 -17 -22 -16 0 -20
6 -19 25 3 32 32 30 36 -3z m81 1 c-1 -17 -3 -21 -6 -10 -2 9 -9 17 -14 17 -5
0 -9 -8 -10 -17 -1 -12 -4 -10 -9 7 -8 24 -8 24 -9 3 -1 -31 -21 -29 -21 2 0
22 4 25 35 25 32 0 35 -3 34 -27z m51 2 c0 -18 -5 -25 -20 -25 -15 0 -19 6
-18 25 2 17 8 25 20 25 13 0 18 -8 18 -25z m118 2 c4 -20 -25 -34 -40 -19 -15
15 -1 44 19 40 10 -2 19 -11 21 -21z m128 11 c4 -6 2 -14 -4 -16 -7 -2 -10 -8
-6 -13 3 -5 -2 -9 -10 -9 -19 0 -29 17 -22 35 7 18 32 20 42 3z m195 -5 c1
-17 2 -17 6 0 7 26 23 20 23 -9 0 -21 -4 -25 -22 -22 -23 3 -40 48 -19 48 6 0
12 -8 12 -17z m140 0 c1 -17 2 -17 6 0 7 26 23 20 23 -9 0 -21 -4 -25 -22 -22
-23 3 -40 48 -19 48 6 0 12 -8 12 -17z"/>
<path d="M150 75 c0 -8 7 -15 15 -15 8 0 15 7 15 15 0 8 -7 15 -15 15 -8 0
-15 -7 -15 -15z"/>
</g>
</svg>
