<?xml version="1.0" standalone="no"?>
<!DOCTYPE svg PUBLIC "-//W3C//DTD SVG 20010904//EN"
 "http://www.w3.org/TR/2001/REC-SVG-20010904/DTD/svg10.dtd">
<svg version="1.0" xmlns="http://www.w3.org/2000/svg"
 width="120.000000pt" height="183.000000pt" viewBox="0 0 120.000000 183.000000"
 preserveAspectRatio="xMidYMid meet">

<g transform="translate(0.000000,183.000000) scale(0.100000,-0.100000)"
fill="#000000" stroke="none">
<path d="M1 1158 c0 -370 4 -691 8 -713 5 -22 9 -32 10 -22 0 9 5 17 9 17 5 0
7 -13 4 -30 -2 -16 -8 -30 -13 -30 -5 0 -9 -4 -9 -10 0 -5 7 -10 15 -10 9 0
15 -9 15 -22 0 -13 4 -29 9 -37 5 -8 7 5 5 33 -3 34 0 48 11 52 8 4 15 10 15
16 0 5 -4 7 -9 4 -9 -6 -21 16 -21 37 0 7 4 6 10 -3 8 -13 11 -13 22 -1 10 10
10 12 1 7 -7 -4 -13 -3 -13 2 0 6 7 13 16 16 8 3 13 2 10 -2 -3 -5 1 -20 8
-33 21 -40 27 -77 15 -85 -6 -3 -17 -22 -25 -41 -15 -34 -18 -37 -66 -47 l-28
-6 0 -125 0 -125 600 0 600 0 0 170 0 170 -29 0 c-16 0 -36 3 -45 6 -18 7 -22
30 -6 36 5 1 12 26 15 53 7 63 14 85 26 85 5 0 9 8 9 17 0 15 2 14 14 -3 13
-17 15 28 16 362 0 375 0 382 -20 387 -26 7 -26 27 0 27 17 0 20 7 20 51 0 35
-3 48 -12 43 -7 -4 -8 -3 -4 5 4 6 0 19 -9 28 -13 13 -14 18 -3 24 10 7 10 9
1 9 -7 0 -13 5 -13 11 0 6 8 9 18 7 18 -5 19 5 21 168 l2 174 -601 0 -600 0 1
-672z m139 222 c0 -5 -7 -10 -16 -10 -8 0 -12 5 -9 10 3 6 10 10 16 10 5 0 9
-4 9 -10z m585 -387 c-28 -20 -41 -16 -20 7 10 11 22 17 28 13 6 -4 3 -12 -8
-20z m-441 -39 c4 -9 3 -20 0 -23 -4 -3 -9 0 -11 7 -3 6 -11 12 -18 12 -17 0
-23 -18 -16 -55 5 -21 12 -30 26 -30 11 0 23 -4 27 -10 4 -5 8 18 8 53 l0 62
70 0 c60 0 70 -3 71 -17 1 -17 2 -17 6 0 4 13 15 17 59 17 36 0 54 -4 55 -12
0 -10 2 -10 6 0 3 7 23 12 49 12 37 0 44 -3 44 -20 0 -11 -4 -20 -10 -20 -5 0
-10 -11 -10 -25 0 -14 4 -25 9 -25 10 0 21 34 21 68 0 19 5 22 35 22 24 0 35
-5 35 -15 0 -8 -7 -15 -15 -15 -8 0 -15 -4 -15 -10 0 -5 7 -10 15 -10 8 0 15
-7 15 -15 0 -8 -7 -15 -15 -15 -8 0 -15 -4 -15 -10 0 -5 9 -10 20 -10 17 0 20
7 20 51 l0 50 43 -3 c41 -3 42 -4 43 -38 0 -19 4 -59 7 -88 5 -37 4 -51 -4
-46 -7 4 -10 -14 -7 -59 3 -59 1 -64 -14 -56 -12 6 -18 6 -18 -1 0 -5 5 -10
12 -10 6 0 8 -3 5 -6 -4 -4 -13 -1 -22 6 -11 9 -15 10 -15 0 0 -6 10 -20 21
-29 18 -14 20 -21 11 -38 -9 -17 -9 -22 4 -27 11 -4 14 -1 9 13 -3 11 -1 22 5
26 7 4 10 -6 8 -29 -1 -20 -6 -36 -10 -36 -4 0 -8 -5 -8 -11 0 -5 4 -7 10 -4
9 6 14 -22 13 -82 0 -49 29 -12 32 39 1 15 4 30 7 33 7 7 17 -110 13 -150 -2
-16 -4 -36 -4 -42 -1 -19 -61 -17 -61 2 0 18 -34 37 -54 29 -9 -3 -16 -2 -16
3 0 9 50 34 90 46 10 3 5 7 -12 12 -16 4 -28 13 -28 19 0 9 -15 11 -52 8 -30
-2 -66 2 -83 9 -16 7 -36 11 -43 10 -10 -2 -12 22 -11 104 1 58 0 107 -2 110
-7 6 -54 7 -109 2 -37 -4 -48 0 -62 17 l-18 21 0 -22 c0 -20 -4 -22 -32 -19
-18 3 -39 5 -45 5 -8 1 -13 16 -14 39 0 35 -1 35 -10 12 -10 -24 -11 -25 -25
-5 -13 18 -14 17 -8 -12 6 -33 -5 -47 -29 -37 -12 4 -14 20 -11 72 4 66 3 67
-26 84 -36 20 -46 82 -19 115 16 19 66 17 73 -3z m619 -54 c-1 -63 1 -70 20
-76 28 -9 37 -22 37 -56 0 -22 5 -28 22 -28 16 0 19 3 11 11 -8 8 -8 18 -1 35
12 25 41 31 68 14 12 -8 9 -10 -12 -10 -15 0 -30 -5 -33 -10 -4 -7 2 -9 19 -4
26 6 37 -10 14 -19 -8 -3 -6 -6 5 -6 26 -1 20 -20 -10 -32 -20 -7 -28 -6 -35
3 -6 10 -10 10 -17 -1 -5 -8 -16 -11 -25 -8 -10 4 -16 1 -16 -8 0 -8 -6 -15
-14 -15 -8 0 -21 -2 -28 -5 -8 -3 -24 4 -36 15 -29 27 -30 82 -2 110 24 24 25
30 5 30 -12 0 -15 14 -15 65 0 61 1 65 23 65 21 0 22 -4 20 -70z m107 51 c19
-36 12 -80 -16 -106 -34 -31 -38 -31 -63 1 -25 32 -27 71 -5 102 20 28 69 30
84 3z m30 -280 c0 -44 -12 -79 -26 -74 -18 7 -18 -5 1 -23 16 -16 20 -34 8
-34 -5 0 -28 14 -53 30 -27 18 -38 30 -27 30 21 0 23 33 2 50 -21 18 -19 33 5
27 11 -3 23 -1 26 4 3 5 18 9 35 9 22 0 29 -5 29 -19z m-517 -21 c3 -14 1 -20
-6 -17 -7 2 -13 13 -13 25 -1 26 11 20 19 -8z m-398 10 c3 -5 1 -10 -4 -10 -6
0 -11 5 -11 10 0 6 2 10 4 10 3 0 8 -4 11 -10z m313 -27 c0 -5 2 -15 5 -23 3
-8 8 -24 10 -35 4 -15 5 -14 6 6 1 18 8 28 21 32 18 5 19 3 5 -23 -10 -18 -11
-31 -5 -35 6 -3 10 -20 10 -36 0 -17 5 -50 11 -74 11 -42 10 -47 -22 -97 -19
-29 -33 -59 -31 -66 2 -9 -4 -12 -20 -10 -19 2 -24 10 -26 43 -3 29 1 43 14
52 17 13 17 15 1 42 -22 37 -21 44 1 32 14 -7 21 -5 30 10 11 16 10 20 -5 25
-49 16 -49 16 -28 24 19 7 19 7 -3 19 -26 14 -28 36 -7 58 8 8 12 19 9 24 -8
13 3 39 16 39 5 0 9 -3 8 -7z m-332 -26 c1 -9 -4 -17 -12 -17 -8 0 -14 9 -14
21 0 24 22 21 26 -4z m483 -24 c-1 -21 3 -58 9 -83 6 -24 10 -45 9 -46 -1 -1
-12 2 -24 7 -18 7 -23 16 -23 46 -1 21 -3 55 -6 76 -5 33 -3 37 16 37 18 0 21
-5 19 -37z m-258 -26 c-10 -9 -11 -8 -5 6 3 10 9 15 12 12 3 -3 0 -11 -7 -18z
m688 -91 c-2 -28 1 -61 5 -73 8 -26 -8 -63 -29 -63 -8 0 -21 10 -29 23 -16 25
-28 117 -15 117 5 0 6 7 2 16 -4 11 2 23 18 35 35 26 51 8 48 -55z m-706 -54
c1 -27 5 -48 9 -45 7 4 4 -24 -8 -84 -4 -21 -10 -23 -65 -23 -33 0 -70 5 -81
11 -18 10 -20 17 -14 62 6 42 20 80 44 117 2 2 8 -2 13 -10 8 -11 12 -12 16
-3 3 8 14 11 29 7 20 -5 26 -2 31 15 9 36 24 9 26 -47z m294 20 c26 -15 63
-34 81 -41 17 -7 32 -17 32 -22 0 -5 7 -9 15 -9 10 0 15 -11 15 -35 l0 -35
-50 0 c-49 0 -50 0 -52 33 l-1 32 -4 -32 c-3 -25 -9 -33 -24 -33 -19 0 -24 14
-20 58 2 23 -6 27 -28 13 -9 -6 -11 -18 -7 -35 8 -32 1 -47 -19 -39 -17 6 -21
88 -5 98 6 3 10 22 10 41 0 19 2 34 5 34 2 0 26 -13 52 -28z m343 -94 c0 -25
-27 -22 -35 3 -4 11 -4 32 0 47 l8 27 13 -30 c7 -16 13 -38 14 -47z m134 56
c12 -31 6 -54 -13 -54 -26 0 -34 15 -27 46 7 27 31 32 40 8z m-702 -68 c6 -50
-2 -65 -29 -55 -27 10 -27 7 -8 53 19 45 32 46 37 2z m124 -21 c1 -15 -3 -25
-12 -25 -15 0 -17 10 -8 34 9 24 19 19 20 -9z m-376 -15 c0 -11 -7 -20 -15
-20 -13 0 -14 4 -5 20 6 11 13 20 15 20 3 0 5 -9 5 -20z"/>
<path d="M370 950 c0 -5 -7 -10 -15 -10 -8 0 -15 -4 -15 -10 0 -5 7 -10 15
-10 8 0 15 -7 15 -15 0 -8 -7 -15 -15 -15 -8 0 -15 -4 -15 -10 0 -5 9 -10 20
-10 17 0 20 7 20 45 0 25 -2 45 -5 45 -3 0 -5 -4 -5 -10z"/>
<path d="M500 906 c0 -36 4 -55 10 -51 11 7 9 90 -3 101 -4 4 -7 -18 -7 -50z"/>
<path d="M790 934 c0 -8 5 -12 10 -9 6 4 8 11 5 16 -9 14 -15 11 -15 -7z"/>
<path d="M561 836 c1 -95 3 -105 21 -110 19 -4 20 -1 15 72 -4 42 -6 92 -7
110 0 22 -5 32 -15 32 -14 0 -16 -16 -14 -104z"/>
<path d="M443 883 c-10 -16 -13 -16 -22 -3 -9 12 -11 10 -11 -11 0 -15 -7 -29
-15 -33 -11 -4 -15 -22 -15 -72 0 -37 3 -64 7 -60 10 10 33 78 33 99 0 11 9
21 20 24 15 4 20 14 20 39 0 39 -1 40 -17 17z"/>
<path d="M790 875 c0 -8 4 -15 10 -15 5 0 7 7 4 15 -4 8 -8 15 -10 15 -2 0 -4
-7 -4 -15z"/>
<path d="M640 856 c0 -8 13 -24 29 -35 34 -25 38 -25 38 -7 0 8 -13 17 -28 20
-20 4 -27 10 -23 21 3 8 1 15 -5 15 -6 0 -11 -6 -11 -14z"/>
<path d="M740 846 c0 -17 16 -30 23 -19 3 5 -1 14 -9 21 -12 10 -14 10 -14 -2z"/>
<path d="M348 842 c-23 -3 -28 -8 -28 -30 1 -26 1 -26 13 -6 7 12 17 19 24 17
6 -2 14 1 18 7 9 15 6 16 -27 12z"/>
<path d="M490 830 c-13 -9 -13 -10 0 -10 9 0 11 -3 4 -8 -7 -5 -7 -21 0 -52
10 -44 10 -44 14 -12 2 17 2 45 0 62 -2 23 -6 28 -18 20z"/>
<path d="M752 735 c1 -53 -2 -79 -11 -85 -9 -5 -10 -10 -2 -14 6 -4 11 -29 11
-56 0 -72 15 -69 16 3 1 34 5 92 9 129 6 55 5 70 -9 83 -15 16 -16 11 -14 -60z"/>
<path d="M651 744 c0 -11 3 -14 6 -6 3 7 2 16 -1 19 -3 4 -6 -2 -5 -13z"/>
<path d="M673 687 c-22 -10 -31 -27 -15 -27 12 0 48 28 42 33 -3 2 -15 0 -27
-6z"/>
<path d="M710 621 c0 -6 5 -13 12 -17 6 -4 8 -3 4 4 -3 5 0 13 6 15 8 3 6 6
-4 6 -10 1 -18 -3 -18 -8z"/>
<path d="M668 593 c6 -2 18 -2 25 0 6 3 1 5 -13 5 -14 0 -19 -2 -12 -5z"/>
<path d="M896 803 c-8 -8 -8 -56 0 -77 12 -30 24 -16 24 28 0 43 -10 63 -24
49z"/>
<path d="M957 943 c-9 -8 -9 -46 -1 -67 12 -31 24 -16 24 29 0 42 -7 54 -23
38z"/>
</g>
</svg>
