<?xml version="1.0" standalone="no"?>
<!DOCTYPE svg PUBLIC "-//W3C//DTD SVG 20010904//EN"
 "http://www.w3.org/TR/2001/REC-SVG-20010904/DTD/svg10.dtd">
<svg version="1.0" xmlns="http://www.w3.org/2000/svg"
 width="225.000000pt" height="225.000000pt" viewBox="0 0 225.000000 225.000000"
 preserveAspectRatio="xMidYMid meet">

<g transform="translate(0.000000,225.000000) scale(0.100000,-0.100000)"
fill="#000000" stroke="none">
<path d="M1010 2136 c-49 -13 -117 -50 -138 -76 -23 -27 -69 -130 -59 -130 6
0 3 -8 -6 -18 -10 -10 -17 -24 -17 -30 0 -7 -4 -12 -8 -12 -16 0 -32 -72 -20
-87 8 -10 13 -11 18 -2 5 6 16 8 29 4 20 -6 20 -8 6 -28 -8 -12 -15 -26 -15
-32 1 -5 6 -1 13 10 7 11 18 21 25 23 14 3 11 -5 -19 -48 -9 -14 -18 -29 -20
-35 -2 -5 -10 -9 -16 -9 -7 1 -11 -2 -8 -6 3 -5 -8 -20 -25 -33 l-30 -26 27 2
c15 1 35 10 45 20 10 10 23 15 28 12 4 -3 18 7 29 21 14 17 21 21 21 12 0 -9
-20 -36 -44 -62 -32 -33 -40 -46 -27 -46 9 0 23 6 30 13 10 10 15 8 27 -7 8
-11 14 -31 14 -45 0 -22 13 -22 16 0 1 5 2 14 3 19 1 13 31 13 31 -1 0 -5 5
-7 10 -4 6 3 10 -2 10 -13 0 -32 36 -55 95 -60 30 -2 55 -8 55 -13 0 -5 9 -9
19 -9 23 0 81 64 81 89 0 26 25 44 50 36 14 -4 20 -15 20 -36 0 -19 10 -39 32
-60 35 -33 53 -24 19 10 -12 12 -21 27 -21 34 1 8 5 7 13 -4 17 -23 52 -39 81
-39 26 0 31 17 11 32 -6 5 -4 8 5 9 8 1 2 5 -15 9 l-30 8 27 1 c15 0 38 -3 52
-9 39 -14 34 11 -9 49 -27 24 -46 31 -78 32 -23 0 -52 2 -65 5 -13 2 -21 0
-18 -4 2 -4 2 -13 -2 -19 -10 -15 -72 -4 -72 13 0 17 -93 17 -125 1 -11 -6
-26 -10 -34 -8 -8 1 -10 -2 -5 -10 5 -9 -2 -11 -29 -6 -20 3 -38 1 -41 -4 -2
-5 -3 -4 -2 3 1 7 13 15 27 19 24 7 24 7 -3 8 -15 1 -31 -6 -36 -15 -7 -12
-17 -15 -36 -10 -16 4 -24 11 -20 17 4 7 -1 9 -15 4 l-22 -7 19 34 c21 37 40
104 22 78 -13 -20 -13 -1 1 38 6 18 14 30 19 27 4 -2 15 13 25 35 10 22 22 40
27 40 5 0 7 4 4 8 -11 18 70 44 149 49 110 6 123 16 115 85 -7 66 -35 105
-102 142 -54 29 -55 29 -118 12z m37 -22 c-3 -3 -12 -4 -19 -1 -8 3 -5 6 6 6
11 1 17 -2 13 -5z m85 -13 c21 -10 35 -21 31 -24 -3 -4 0 -15 8 -24 7 -10 -2
-4 -21 14 -19 18 -46 36 -60 42 -14 5 -18 10 -10 10 9 1 32 -7 52 -18z m-99
-18 c-7 -2 -19 -2 -25 0 -7 3 -2 5 12 5 14 0 19 -2 13 -5z m-163 -362 c-6 -12
-15 -19 -21 -16 -5 4 -12 -1 -15 -9 -3 -9 -10 -16 -16 -16 -5 0 0 14 12 30 12
17 26 28 31 25 5 -4 9 -1 9 6 0 7 3 10 6 7 3 -4 1 -16 -6 -27z m129 -201 c29
15 39 12 17 -5 -31 -23 -6 -37 58 -33 31 1 51 -1 46 -6 -4 -5 -38 -7 -74 -4
-76 5 -102 22 -91 59 l8 24 8 -23 c7 -19 12 -21 28 -12z m160 -17 c-7 -10 -14
-19 -15 -21 -1 -2 -4 4 -8 13 -3 9 -2 13 3 10 5 -3 12 -1 16 5 3 5 9 10 12 10
3 0 -1 -8 -8 -17z m-114 -3 c-3 -5 -14 -10 -23 -9 -14 0 -13 2 3 9 27 11 27
11 20 0z"/>
<path d="M1250 2009 c0 -5 5 -7 10 -4 6 3 10 8 10 11 0 2 -4 4 -10 4 -5 0 -10
-5 -10 -11z"/>
<path d="M1379 1969 c-10 -6 -7 -9 14 -9 29 0 35 5 14 13 -8 3 -20 1 -28 -4z"/>
<path d="M554 1946 c-8 -20 -1 -49 12 -53 15 -5 24 20 17 46 -6 24 -21 28 -29
7z"/>
<path d="M1426 1953 c-12 -12 -6 -25 10 -19 8 3 13 2 10 -3 -3 -4 1 -17 9 -27
14 -18 14 -17 12 9 -1 28 -28 53 -41 40z"/>
<path d="M600 1920 c0 -5 4 -10 9 -10 6 0 13 5 16 10 3 6 -1 10 -9 10 -9 0
-16 -4 -16 -10z"/>
<path d="M556 1817 c3 -8 -2 -17 -11 -21 -23 -8 -9 -26 21 -26 24 0 31 10 17
24 -5 4 -8 13 -8 19 0 5 -6 12 -13 15 -7 2 -10 -2 -6 -11z"/>
<path d="M660 1790 c0 -5 5 -10 10 -10 6 0 10 5 10 10 0 6 -4 10 -10 10 -5 0
-10 -4 -10 -10z"/>
<path d="M455 1700 c3 -5 10 -10 16 -10 5 0 9 5 9 10 0 6 -7 10 -16 10 -8 0
-12 -4 -9 -10z"/>
<path d="M1775 1700 c3 -5 8 -10 11 -10 2 0 4 5 4 10 0 6 -5 10 -11 10 -5 0
-7 -4 -4 -10z"/>
<path d="M1650 1666 c0 -7 7 -13 15 -13 8 0 15 4 15 8 0 4 -7 9 -15 13 -9 3
-15 0 -15 -8z"/>
<path d="M1527 1613 c-9 -3 -15 -9 -11 -14 4 -6 10 -7 17 0 9 7 13 1 14 -21 2
-25 0 -28 -12 -18 -12 10 -15 10 -15 0 0 -7 -9 -1 -20 13 -14 18 -26 24 -38
20 -14 -6 -13 -8 8 -13 20 -5 25 -12 25 -38 0 -18 3 -32 7 -32 5 0 8 5 8 10 0
6 6 10 14 10 8 0 21 7 29 15 13 13 16 12 22 -3 12 -28 14 -77 3 -83 -7 -4 -6
-14 2 -28 11 -22 11 -22 -12 -7 -23 15 -23 15 -23 -33 0 -48 0 -48 23 -33 13
8 22 10 22 4 0 -6 -4 -14 -10 -17 -16 -10 -12 -25 5 -19 10 4 14 20 13 49 0
24 6 51 13 59 49 54 49 59 -19 132 -31 34 -53 50 -65 47z"/>
<path d="M297 1593 c-12 -12 -7 -22 8 -17 8 4 15 10 15 15 0 11 -14 12 -23 2z"/>
<path d="M1890 1580 c0 -5 5 -10 10 -10 6 0 10 5 10 10 0 6 -4 10 -10 10 -5 0
-10 -4 -10 -10z"/>
<path d="M1470 1563 c0 -4 5 -15 10 -23 8 -13 10 -13 10 2 0 9 -4 20 -10 23
-5 3 -10 3 -10 -2z"/>
<path d="M714 1528 c-7 -23 13 -85 37 -117 11 -13 19 -33 19 -45 0 -11 5 -28
10 -36 9 -13 12 -12 25 4 8 11 15 14 15 7 0 -7 4 -9 10 -6 6 3 7 -1 4 -9 -3
-9 -12 -16 -19 -16 -19 0 -64 -60 -58 -77 3 -8 -2 -13 -13 -13 -17 0 -16 -1 2
-15 16 -13 16 -14 2 -9 -25 8 -22 -5 4 -28 14 -12 18 -22 12 -26 -6 -4 -24
-27 -41 -52 -17 -25 -41 -54 -54 -65 -26 -22 -99 -49 -163 -60 -57 -10 -163
-44 -178 -58 -7 -6 -30 -25 -50 -40 -60 -45 -103 -131 -148 -302 -35 -133 -42
-221 -24 -315 8 -47 19 -121 22 -165 l7 -80 1006 -2 1007 -3 7 84 c7 86 -6
215 -30 296 -17 56 -27 200 -14 200 5 0 9 5 9 10 0 6 -6 10 -13 10 -8 0 -18
25 -25 62 -26 129 -28 133 -79 160 -27 14 -75 42 -107 62 -33 20 -67 36 -75
36 -9 1 -41 10 -71 21 -30 11 -81 24 -114 29 -36 5 -67 17 -81 30 -15 14 -38
22 -64 23 -42 2 -51 10 -27 24 7 4 19 19 26 32 6 13 7 21 2 17 -6 -3 -13 0
-15 6 -3 7 -6 3 -6 -8 -1 -26 -18 -40 -51 -42 -14 -1 -26 -6 -28 -12 -2 -5
-10 -10 -18 -10 -8 0 -14 -4 -14 -10 0 -5 -11 -10 -25 -10 -14 0 -25 4 -25 8
0 5 -52 8 -116 7 -86 -1 -118 3 -121 12 -3 7 -11 13 -19 13 -8 0 -15 8 -16 18
-5 58 -2 70 19 86 13 9 23 13 23 8 0 -5 9 -12 20 -15 11 -3 20 -13 20 -24 0
-15 9 -18 64 -20 47 -2 67 1 76 12 9 11 23 14 46 9 27 -5 34 -3 34 10 0 27
-49 38 -152 34 -53 -2 -95 -1 -93 2 5 8 89 15 182 15 62 0 75 -3 97 -24 14
-14 27 -23 27 -20 1 2 3 13 4 24 2 11 6 29 11 40 7 17 6 18 -8 7 -9 -7 -18 -9
-20 -3 -1 5 -10 11 -18 13 -8 2 -18 7 -22 13 -4 6 -30 5 -70 -1 -39 -7 -78 -7
-103 -2 -36 9 -103 5 -147 -8 -15 -5 -17 0 -12 28 6 27 4 31 -7 21 -7 -7 -14
-26 -15 -42 -1 -15 -5 -38 -9 -50 -3 -11 -2 -21 3 -21 6 0 13 12 17 27 l6 27
12 -24 c10 -21 10 -27 -5 -42 -10 -10 -18 -27 -18 -38 0 -11 -7 -20 -15 -20
-11 0 -15 11 -16 38 0 20 -3 32 -5 26 -7 -17 -46 -5 -66 20 -10 12 -18 38 -18
64 0 43 7 51 28 30 31 -31 -3 133 -37 181 -14 19 -21 41 -19 55 6 30 -24 52
-42 31 -7 -8 -17 -15 -22 -15 -7 0 -7 4 0 13 8 9 1 12 -29 13 -29 1 -40 -3
-45 -18z m124 -19 c-3 -8 -7 -3 -11 10 -4 17 -3 21 5 13 5 -5 8 -16 6 -23z
m21 -121 c8 -21 4 -54 -6 -45 -2 2 -8 18 -13 36 -10 36 6 44 19 9z m31 -79 c0
-5 -9 -18 -19 -28 -19 -19 -19 -19 -24 0 -4 14 0 19 16 20 12 0 16 3 9 6 -6 2
-10 9 -6 14 6 11 24 2 24 -12z m-65 -27 c-3 -3 -11 0 -18 7 -9 10 -8 11 6 5
10 -3 15 -9 12 -12z m98 -247 c-3 -9 -8 -14 -10 -11 -3 3 -2 9 2 15 9 16 15
13 8 -4z m512 -64 c-4 -17 -11 -31 -15 -31 -5 0 -6 7 -3 17 5 12 3 14 -7 8 -9
-6 -11 -4 -5 6 27 47 41 47 30 0z m-64 -68 c-12 -20 -14 -14 -5 12 4 9 9 14
11 11 3 -2 0 -13 -6 -23z m-138 -331 c19 -20 12 -62 -9 -62 -8 0 -14 -6 -14
-12 0 -8 -7 -5 -15 6 -11 14 -15 16 -15 5 -1 -8 -9 2 -19 21 -21 42 -17 54 15
46 14 -4 24 -2 24 4 0 15 15 12 33 -8z m-142 -40 c0 -14 2 -13 10 3 8 19 9 19
6 1 -1 -11 -6 -21 -12 -23 -18 -5 -38 14 -32 32 8 20 27 11 28 -13z"/>
<path d="M1340 1450 c0 -12 37 -12 65 0 15 7 10 9 -22 9 -24 1 -43 -3 -43 -9z"/>
<path d="M1155 1394 c-31 -29 -33 -54 -2 -54 12 0 34 -6 49 -14 24 -13 27 -12
31 5 4 16 12 19 41 16 32 -4 36 -2 36 18 0 26 -14 33 -83 44 -41 7 -50 5 -72
-15z"/>
<path d="M1480 1364 c0 -21 4 -33 10 -29 6 3 10 19 10 36 0 16 -4 29 -10 29
-5 0 -10 -16 -10 -36z"/>
<path d="M950 1349 c0 -11 5 -17 10 -14 6 3 10 13 10 21 0 8 -4 14 -10 14 -5
0 -10 -9 -10 -21z"/>
<path d="M1433 1354 c-17 -18 -16 -33 2 -40 8 -3 20 -23 26 -45 7 -21 16 -36
21 -33 11 7 -1 75 -17 94 -7 8 -14 20 -16 27 -3 8 -8 7 -16 -3z"/>
<path d="M540 1330 c0 -15 21 -23 32 -12 6 6 2 11 -11 15 -12 3 -21 1 -21 -3z"/>
<path d="M468 1319 c-19 -11 -24 -29 -8 -29 5 0 14 9 20 20 12 23 12 23 -12 9z"/>
<path d="M1528 1325 c-8 -8 3 -55 13 -55 5 0 9 3 9 8 0 4 3 17 6 30 5 15 2 22
-8 22 -8 0 -17 -2 -20 -5z"/>
<path d="M966 1311 c-4 -5 -2 -20 3 -33 7 -16 10 -18 10 -6 1 9 6 18 13 20 6
2 8 10 4 16 -9 14 -23 16 -30 3z"/>
<path d="M1421 1263 c1 -10 5 -29 9 -43 7 -22 8 -21 9 12 1 20 -3 40 -9 43 -5
3 -10 -2 -9 -12z"/>
<path d="M260 1260 c0 -5 5 -10 11 -10 5 0 7 5 4 10 -3 6 -8 10 -11 10 -2 0
-4 -4 -4 -10z"/>
<path d="M1220 1250 c0 -5 5 -10 10 -10 6 0 10 5 10 10 0 6 -4 10 -10 10 -5 0
-10 -4 -10 -10z"/>
<path d="M1535 1249 c-4 -6 -5 -13 -2 -16 7 -7 27 6 27 18 0 12 -17 12 -25 -2z"/>
<path d="M150 1243 c0 -5 5 -15 10 -23 8 -12 10 -11 10 8 0 12 -4 22 -10 22
-5 0 -10 -3 -10 -7z"/>
<path d="M322 1198 c5 -15 37 -18 41 -3 1 6 -9 12 -22 13 -16 3 -22 -1 -19
-10z"/>
<path d="M1955 1170 c3 -5 11 -10 16 -10 6 0 7 5 4 10 -3 6 -11 10 -16 10 -6
0 -7 -4 -4 -10z"/>
<path d="M520 1150 c0 -5 5 -10 10 -10 6 0 10 5 10 10 0 6 -4 10 -10 10 -5 0
-10 -4 -10 -10z"/>
<path d="M1400 1121 c0 -6 5 -13 10 -16 6 -3 10 1 10 9 0 9 -4 16 -10 16 -5 0
-10 -4 -10 -9z"/>
<path d="M1230 1080 c36 -11 52 -11 45 0 -3 6 -21 10 -38 9 -31 -1 -31 -1 -7
-9z"/>
<path d="M80 1000 c0 -5 7 -10 16 -10 8 0 12 5 9 10 -3 6 -10 10 -16 10 -5 0
-9 -4 -9 -10z"/>
<path d="M357 993 c-4 -3 -7 -12 -7 -20 0 -11 5 -11 20 -3 11 6 20 15 20 20 0
11 -23 13 -33 3z"/>
<path d="M1911 984 c0 -11 3 -14 6 -6 3 7 2 16 -1 19 -3 4 -6 -2 -5 -13z"/>
<path d="M400 980 c0 -5 7 -10 15 -10 8 0 15 5 15 10 0 6 -7 10 -15 10 -8 0
-15 -4 -15 -10z"/>
<path d="M189 964 c-12 -14 -11 -16 5 -13 11 2 21 10 24 17 5 17 -13 15 -29
-4z"/>
<path d="M1970 900 c0 -5 7 -10 16 -10 8 0 12 5 9 10 -3 6 -10 10 -16 10 -5 0
-9 -4 -9 -10z"/>
<path d="M116 803 c-11 -11 -6 -31 8 -36 8 -3 20 0 26 8 9 11 7 16 -8 24 -11
6 -22 7 -26 4z"/>
<path d="M130 729 c0 -5 5 -7 10 -4 6 3 10 8 10 11 0 2 -4 4 -10 4 -5 0 -10
-5 -10 -11z"/>
<path d="M66 139 c7 -12 44 -12 44 0 0 5 -11 9 -25 9 -13 0 -22 -4 -19 -9z"/>
<path d="M71 36 c-9 -11 -8 -15 5 -20 20 -8 39 7 30 23 -10 15 -21 14 -35 -3z"/>
</g>
</svg>
