<?xml version="1.0" standalone="no"?>
<!DOCTYPE svg PUBLIC "-//W3C//DTD SVG 20010904//EN"
 "http://www.w3.org/TR/2001/REC-SVG-20010904/DTD/svg10.dtd">
<svg version="1.0" xmlns="http://www.w3.org/2000/svg"
 width="120.000000pt" height="183.000000pt" viewBox="0 0 120.000000 183.000000"
 preserveAspectRatio="xMidYMid meet">

<g transform="translate(0.000000,183.000000) scale(0.100000,-0.100000)"
fill="#000000" stroke="none">
<path d="M0 915 l0 -915 600 0 600 0 0 915 0 915 -600 0 -599 0 -1 -915z m667
363 c1 -107 -1 -165 -7 -152 -5 12 -13 25 -18 28 -14 8 -26 -86 -16 -126 9
-39 6 -68 -8 -86 -8 -9 -16 -6 -35 15 -20 24 -24 37 -22 88 2 104 -1 146 -11
140 -5 -3 -7 -12 -3 -20 3 -8 1 -15 -5 -15 -6 0 -12 12 -15 28 -8 44 -9 193
-2 234 6 33 12 40 36 45 16 3 32 9 34 14 3 4 20 2 38 -6 l32 -13 2 -174z m440
-105 c-2 -16 -4 -3 -4 27 0 30 2 43 4 28 2 -16 2 -40 0 -55z m-369 -58 c-3 -3
-9 2 -12 12 -6 14 -5 15 5 6 7 -7 10 -15 7 -18z m-188 8 c0 -5 -5 -15 -10 -23
-7 -12 -9 -10 -7 8 1 19 17 33 17 15z m103 -13 c3 -11 1 -18 -4 -14 -5 3 -9
12 -9 20 0 20 7 17 13 -6z m-136 -32 c-3 -8 -6 -5 -6 6 -1 11 2 17 5 13 3 -3
4 -12 1 -19z m197 1 c8 7 12 5 12 -9 0 -10 -5 -18 -11 -17 -6 1 -9 -16 -8 -40
1 -24 -3 -43 -8 -43 -5 0 -8 30 -8 68 1 37 3 59 6 49 3 -13 8 -15 17 -8z m40
-53 c-3 -15 -8 -25 -11 -23 -2 3 -1 17 3 31 3 15 8 25 11 23 2 -3 1 -17 -3
-31z m-247 -43 c-3 -10 -5 -4 -5 12 0 17 2 24 5 18 2 -7 2 -21 0 -30z m49 -91
c13 -13 17 -12 35 7 11 11 21 21 23 21 2 0 1 -22 -2 -50 -3 -33 -1 -50 6 -50
8 0 9 -8 2 -26 -11 -28 -13 -50 -4 -41 3 3 17 2 30 -3 19 -8 29 -5 44 10 11
11 26 17 35 14 8 -4 15 -1 15 4 0 6 -8 13 -17 15 -10 3 5 5 32 4 28 0 38 -2
23 -4 -16 -2 -28 -8 -28 -13 0 -4 14 -6 32 -3 28 4 30 3 19 -11 -11 -14 -11
-16 3 -16 9 0 16 5 16 10 0 24 28 7 34 -20 3 -18 12 -30 22 -30 8 0 14 -3 12
-7 -2 -5 -12 -25 -21 -46 l-17 -37 -95 2 c-76 2 -94 6 -90 17 4 11 2 11 -9 2
-11 -9 -15 -9 -19 1 -2 7 -7 10 -11 6 -11 -10 16 -47 31 -41 10 4 13 -20 13
-116 0 -106 -2 -121 -17 -121 -9 0 -24 -7 -33 -15 -14 -13 -21 -13 -54 5 l-39
19 2 98 c1 54 7 103 13 110 7 9 7 13 -1 13 -6 0 -11 5 -11 11 0 5 5 7 12 3 8
-5 9 -2 5 10 -4 9 -3 14 2 11 17 -10 21 12 6 25 -10 9 -15 9 -15 1 0 -6 -3
-10 -7 -10 -20 3 -34 -2 -28 -11 4 -6 -19 -10 -62 -10 -48 0 -63 3 -53 10 9 6
10 10 3 10 -6 0 -15 -4 -18 -10 -10 -16 -25 -12 -25 7 0 9 -8 26 -19 37 -17
20 -17 23 -2 56 l16 35 72 0 c51 0 73 -4 73 -12 0 -9 7 -7 20 4 18 15 20 31
22 133 1 63 3 91 5 61 2 -30 11 -60 19 -69z m124 -112 c6 0 10 -5 10 -11 0 -5
-4 -7 -10 -4 -5 3 -10 2 -10 -4 0 -6 -7 -8 -15 -5 -17 7 -21 34 -5 34 6 0 10
5 10 11 0 5 -5 7 -12 3 -7 -5 -8 -3 -4 5 5 7 0 21 -11 33 -12 14 -13 18 -3 13
13 -8 13 -7 1 8 -10 12 -10 17 -2 17 8 0 10 9 7 23 -3 12 -3 16 0 10 13 -29
24 -10 26 45 1 31 4 4 5 -60 2 -67 8 -118 13 -118z m-160 160 c0 -5 -2 -10 -4
-10 -3 0 -8 5 -11 10 -3 6 -1 10 4 10 6 0 11 -4 11 -10z m177 -22 c-3 -8 -6
-5 -6 6 -1 11 2 17 5 13 3 -3 4 -12 1 -19z m-117 -3 c0 -8 -4 -15 -10 -15 -5
0 -10 7 -10 15 0 8 5 15 10 15 6 0 10 -7 10 -15z m-60 -60 l0 -65 -42 2 -43 1
38 4 37 4 0 60 c0 32 2 59 5 59 3 0 5 -29 5 -65z m-1 -267 c0 -27 -2 -29 -8
-13 -5 11 -6 26 -4 33 8 21 13 13 12 -20z"/>
<path d="M589 1123 c-2 -66 0 -125 5 -130 3 -4 6 28 6 70 0 43 -2 77 -5 77 -3
0 -5 -8 -6 -17z"/>
<path d="M552 841 c-10 -24 -16 -67 -13 -101 1 -12 3 -12 10 -2 4 8 12 12 17
10 5 -1 10 13 12 32 2 19 9 38 15 42 9 6 8 8 -1 8 -8 0 -11 7 -8 18 10 29 -19
22 -32 -7z"/>
<path d="M590 779 c0 -5 5 -7 10 -4 6 3 10 8 10 11 0 2 -4 4 -10 4 -5 0 -10
-5 -10 -11z"/>
<path d="M387 763 c-12 -12 -7 -22 8 -17 8 4 15 10 15 15 0 11 -14 12 -23 2z"/>
<path d="M438 753 c7 -3 16 -2 19 1 4 3 -2 6 -13 5 -11 0 -14 -3 -6 -6z"/>
<path d="M342 702 c5 -23 28 -27 28 -4 0 10 -7 19 -15 19 -9 0 -15 -7 -13 -15z"/>
<path d="M819 711 c-13 -5 -14 -8 -4 -18 7 -6 18 -8 26 -2 19 11 -1 29 -22 20z"/>
<path d="M625 530 c3 -5 8 -10 11 -10 2 0 4 5 4 10 0 6 -5 10 -11 10 -5 0 -7
-4 -4 -10z"/>
<path d="M590 394 c0 -8 5 -12 10 -9 6 4 8 11 5 16 -9 14 -15 11 -15 -7z"/>
</g>
</svg>
