<?xml version="1.0" standalone="no"?>
<!DOCTYPE svg PUBLIC "-//W3C//DTD SVG 20010904//EN"
 "http://www.w3.org/TR/2001/REC-SVG-20010904/DTD/svg10.dtd">
<svg version="1.0" xmlns="http://www.w3.org/2000/svg"
 width="40" height="40" viewBox="0 0 40 40"
 preserveAspectRatio="xMidYMid meet">

<g transform="translate(0.000000,225.000000) scale(0.100000,-0.100000)"
fill="#000000" stroke="none">
<path d="M0 1125 l0 -1125 1125 0 1125 0 0 1125 0 1125 -1125 0 -1125 0 0
-1125z m902 840 c47 -8 106 -23 131 -34 59 -25 121 -82 154 -140 74 -131 106
-166 136 -149 11 5 40 7 66 4 25 -4 80 -10 121 -14 41 -5 96 -18 122 -29 26
-12 81 -24 124 -28 123 -10 274 -79 274 -125 0 -11 -6 -20 -12 -20 -7 -1 -22
-15 -33 -33 -11 -18 -30 -33 -43 -35 -12 -2 -22 -7 -22 -12 0 -11 -69 -54 -76
-47 -3 3 -14 -3 -25 -14 -19 -19 -19 -22 -4 -71 8 -28 15 -62 15 -75 0 -17 5
-22 22 -20 17 1 23 -5 31 -33 5 -19 7 -54 4 -77 l-4 -42 29 15 c19 10 34 12
40 6 13 -13 -11 -67 -48 -111 -20 -24 -23 -33 -12 -28 19 7 78 -10 78 -22 0
-4 -10 -13 -23 -20 -13 -7 -35 -27 -49 -45 l-27 -33 38 -11 c39 -12 89 -57 77
-69 -4 -4 -28 -6 -53 -5 -26 1 -63 -3 -83 -8 -50 -13 -146 -90 -142 -112 3
-13 -3 -18 -22 -18 -23 0 -25 -3 -20 -29 3 -16 1 -31 -4 -35 -6 -4 -42 -7 -81
-8 -67 -1 -70 -2 -81 -29 -19 -45 -38 -56 -49 -27 -5 13 -16 29 -24 36 -12 11
-19 8 -36 -15 -12 -15 -18 -19 -12 -8 5 11 21 31 35 44 23 21 26 22 26 7 0
-15 3 -16 15 -6 16 13 18 9 16 -25 0 -11 7 -1 16 23 13 32 21 41 33 35 20 -10
130 -12 130 -3 0 4 -9 19 -21 34 l-20 26 37 0 c38 0 38 0 16 16 -22 15 -22 34
1 34 7 0 6 -4 -3 -10 -12 -8 -11 -10 6 -10 19 0 48 19 127 82 24 19 40 23 103
23 62 0 72 2 57 13 -22 16 -80 32 -115 32 -26 0 -24 3 35 62 l62 61 -40 -6
c-22 -3 -51 -9 -65 -13 -21 -6 -17 2 26 47 29 30 60 70 69 88 l18 35 -27 -17
c-14 -9 -38 -25 -52 -34 l-27 -17 17 32 c16 32 21 89 10 130 -6 22 -8 21 -24
-15 l-17 -38 -7 60 c-6 51 -34 158 -52 203 -4 7 2 12 15 12 13 0 21 6 21 17 0
18 28 53 43 53 5 0 7 -11 5 -25 -4 -20 -2 -23 11 -15 9 4 27 20 40 34 14 14
32 26 41 26 9 0 22 11 28 25 9 20 8 26 -6 35 -14 9 -10 10 17 7 32 -4 33 -3
15 11 -55 42 -148 75 -223 79 -52 3 -94 12 -134 29 -35 16 -84 27 -130 30 -39
3 -84 10 -100 16 -20 8 -40 7 -73 -2 l-45 -13 -40 44 c-22 24 -52 67 -66 96
-36 73 -73 115 -129 145 -102 55 -340 82 -397 45 -15 -9 -27 -23 -27 -29 0 -6
8 -4 19 6 36 32 83 38 193 21 57 -8 124 -22 149 -30 46 -16 129 -78 129 -97 0
-6 -14 4 -32 21 -48 47 -232 101 -346 101 -44 0 -102 -25 -102 -45 0 -5 -4 -4
-9 4 -7 11 -11 9 -21 -9 -14 -27 -5 -38 45 -56 33 -11 36 -10 30 4 -24 59 11
65 112 21 56 -24 78 -40 91 -63 22 -43 17 -134 -9 -162 -31 -33 -22 -45 12
-14 41 37 68 43 115 25 l39 -14 -60 6 c-55 6 -59 5 -46 -10 12 -15 10 -17 -14
-17 -16 0 -36 -7 -45 -15 -14 -12 -23 -13 -45 -5 -31 12 -43 6 -90 -47 -25
-28 -44 -37 -100 -48 -50 -11 -88 -27 -135 -58 -36 -24 -79 -49 -97 -56 -36
-15 -68 -46 -78 -78 -3 -13 -14 -23 -23 -23 -19 -1 -39 -15 -62 -44 -14 -18
-13 -18 8 -12 26 9 27 3 6 -29 -19 -30 -16 -30 32 -7 28 13 38 14 41 5 3 -7
18 -13 34 -13 28 0 29 -2 28 -42 -1 -24 -4 -54 -9 -68 -7 -24 -7 -23 -14 11
-4 20 -6 44 -4 54 5 31 -55 41 -103 16 -41 -22 -57 -14 -40 18 8 14 7 22 -4
31 -13 10 -13 16 1 42 8 16 31 39 50 50 19 11 41 33 50 49 9 19 37 40 77 60
34 18 76 42 93 55 39 30 93 52 152 64 36 6 59 20 95 54 28 27 57 46 70 46 33
0 53 30 61 89 9 70 -5 90 -90 130 -36 17 -70 31 -75 31 -5 0 -6 -13 -3 -29 7
-35 -9 -43 -62 -31 -65 15 -81 58 -43 112 50 70 127 84 301 53z m291 -277 c24
-22 16 -19 -36 13 -37 23 -70 46 -74 52 -10 16 74 -34 110 -65z m137 -93 c-14
-8 -32 -14 -40 -14 -19 -1 30 27 50 28 8 0 4 -6 -10 -14z m313 -42 c16 -8 27
-17 24 -19 -3 -3 -18 1 -34 9 -19 10 -58 14 -122 13 -72 -1 -86 0 -60 7 19 5
59 7 89 4 39 -4 50 -3 40 4 -21 14 26 1 63 -18z m-798 1 c17 -8 22 -12 12 -9
-10 3 -32 5 -48 5 -18 0 -28 4 -24 10 8 13 24 12 60 -6z m400 -5 c5 -5 -6 -4
-25 2 -45 15 -54 24 -15 15 17 -4 34 -12 40 -17z m250 -9 c-11 -5 -33 -8 -50
-8 -29 0 -29 0 -5 8 14 4 36 8 50 8 23 1 23 0 5 -8z m370 -22 c17 -7 16 -8 -5
-3 -14 2 -50 5 -80 6 -45 1 -50 3 -25 9 32 7 77 3 110 -12z m-880 -29 c16 -7
13 -8 -14 -6 -32 4 -56 1 -121 -16 -14 -4 -7 2 15 13 43 21 88 24 120 9z
m-340 -49 c-38 -3 -81 -12 -93 -19 -13 -7 -26 -11 -28 -8 -3 2 10 12 28 20 21
11 56 16 98 15 l65 -1 -70 -7z m816 -97 c14 -16 34 -43 43 -61 17 -33 17 -34
-9 -69 -23 -29 -31 -34 -54 -27 -49 13 -59 9 -92 -41 -20 -29 -56 -64 -86 -84
-29 -18 -53 -41 -53 -49 0 -8 11 -34 24 -57 32 -53 87 -80 148 -71 43 6 43 6
16 -9 -22 -13 -28 -23 -28 -51 0 -19 -5 -45 -11 -56 -11 -21 -12 -21 -25 3 -7
13 -13 32 -14 42 0 9 -4 17 -10 17 -5 0 -10 8 -11 18 -1 11 -4 8 -9 -8 -7 -25
-7 -24 -18 10 l-12 35 5 -36 c5 -33 3 -38 -23 -47 -21 -7 -31 -20 -41 -52 -9
-32 -15 -40 -22 -29 -5 8 -9 24 -9 37 0 20 -5 22 -59 22 -61 0 -71 -7 -71 -51
0 -33 -18 -21 -32 22 -11 34 -21 44 -48 53 -27 8 -36 18 -41 41 -6 26 -7 27
-8 6 -1 -24 -2 -24 -15 -6 -12 16 -13 13 -9 -32 7 -63 -11 -79 -32 -29 -8 19
-15 46 -15 59 0 16 -8 26 -27 33 -23 9 -19 10 27 7 42 -3 62 0 87 16 31 19 74
86 72 113 0 7 -21 27 -47 43 -39 25 -48 36 -51 65 -3 31 -4 33 -10 11 -6 -24
-8 -23 -36 21 -27 43 -30 45 -59 37 -17 -5 -36 -9 -43 -9 -16 0 -84 90 -77
102 4 5 27 7 54 3 36 -5 58 -2 84 10 49 23 59 13 54 -52 -3 -30 -1 -48 3 -41
5 7 9 29 9 48 0 19 4 41 9 49 6 9 8 -9 5 -50 -3 -45 -1 -58 5 -44 9 19 10 18
11 -5 1 -14 8 3 16 38 16 73 30 102 48 102 7 0 33 -7 57 -15 24 -9 74 -18 111
-20 37 -2 72 -6 77 -9 5 -3 12 -22 15 -41 4 -20 11 -33 17 -30 5 4 9 -7 9 -24
0 -16 5 -33 10 -36 7 -5 9 16 6 62 l-5 68 14 -70 14 -70 -4 63 c-5 70 3 95 44
129 38 32 89 30 122 -4z m162 10 c12 -7 59 -103 83 -173 13 -36 23 -56 23 -45
0 11 -6 38 -14 60 -20 56 -12 55 13 -3 28 -64 36 -136 26 -219 l-8 -68 -7 45
-6 45 -1 -46 c-4 -110 -48 -233 -108 -305 -21 -25 -20 -21 7 29 39 71 32 75
-11 5 -34 -57 -69 -98 -81 -98 -4 0 8 33 27 74 46 100 43 108 -7 16 -49 -89
-45 -85 -53 -65 -4 11 -2 14 6 9 8 -5 9 -2 5 9 -3 9 0 32 8 51 17 41 18 46 6
46 -5 0 -14 -14 -21 -31 -7 -17 -18 -36 -24 -42 -7 -7 -22 -27 -35 -46 -13
-18 -44 -46 -69 -62 -52 -33 -65 -26 -56 31 l5 35 -20 -40 c-14 -29 -20 -35
-21 -20 -1 14 -7 7 -20 -22 -24 -53 -66 -76 -140 -76 -58 0 -134 27 -159 56
-7 9 -17 14 -22 11 -5 -3 -6 1 -3 9 3 8 -7 28 -22 43 -18 19 -25 23 -21 11 4
-10 7 -24 7 -30 0 -8 3 -7 9 1 7 11 9 10 14 -3 5 -10 3 -14 -5 -9 -7 5 -9 0
-6 -14 4 -12 2 -20 -3 -16 -5 3 -9 11 -9 18 0 7 -7 21 -15 32 -14 18 -14 17
-5 -9 5 -16 15 -37 20 -48 10 -17 8 -18 -17 -8 -40 15 -91 67 -119 122 -13 26
-28 47 -33 47 -5 0 -18 16 -30 35 -22 37 -11 47 21 18 17 -15 20 -15 43 7 l24
23 -5 -28 c-7 -42 3 -60 43 -74 34 -13 37 -12 53 10 l18 22 7 -31 c5 -26 14
-34 61 -52 74 -27 100 -26 121 7 l17 26 6 -24 c15 -63 200 -12 200 55 0 20 1
20 19 -4 19 -24 20 -24 55 -8 30 15 35 22 39 60 3 36 5 39 11 21 10 -28 21
-29 53 -3 14 11 34 20 44 20 27 0 55 50 91 165 18 60 42 112 57 129 31 34 17
28 -63 -31 -64 -47 -74 -50 -82 -28 -8 21 5 53 15 37 4 -6 7 5 8 26 1 20 4 72
8 114 4 42 4 93 1 113 l-7 37 -25 -23 c-13 -12 -24 -18 -24 -12 0 6 -3 20 -6
30 -5 15 -4 16 5 3 9 -12 10 -9 5 13 -9 41 11 60 55 52 20 -4 39 -9 44 -12z
m-115 -28 c-3 -3 -9 2 -12 12 -6 14 -5 15 5 6 7 -7 10 -15 7 -18z m180 -50
c-3 -3 -9 2 -12 12 -6 14 -5 15 5 6 7 -7 10 -15 7 -18z m-1097 4 c16 -8 19
-17 14 -42 l-5 -32 15 30 c8 17 12 21 9 10 -4 -11 -8 -60 -10 -110 l-3 -90 12
70 13 70 6 -57 c8 -71 52 -171 89 -203 27 -22 28 -24 13 -53 -8 -16 -21 -35
-29 -42 -13 -10 -15 -8 -17 16 -1 16 -1 41 0 56 2 22 -5 32 -38 50 -29 17 -40
30 -41 48 0 20 -2 21 -7 7 -7 -16 -12 -14 -52 15 l-44 33 27 -40 c15 -22 27
-50 27 -63 0 -38 58 -177 85 -202 14 -13 25 -28 25 -34 0 -6 15 -41 33 -78 37
-76 31 -82 -9 -8 -15 28 -29 48 -31 46 -4 -4 52 -111 70 -133 26 -35 -49 5
-87 46 -16 17 -32 28 -36 26 -4 -3 -14 3 -21 13 -13 15 -12 16 4 3 9 -7 17 -9
17 -3 0 12 -25 34 -32 27 -7 -7 -20 10 -53 70 -53 97 -77 174 -82 275 -7 119
11 189 63 249 39 44 45 47 75 30z m326 -41 c-3 -7 -5 -2 -5 12 0 14 2 19 5 13
2 -7 2 -19 0 -25z m878 -135 c8 -31 14 -73 13 -93 l-1 -35 -6 35 c-5 34 -5 34
-11 -15 l-7 -50 -1 62 c-1 34 -9 90 -18 125 -8 35 -17 72 -20 83 -11 46 37
-59 51 -112z m-952 40 c12 -16 38 -44 58 -63 20 -19 41 -45 48 -57 10 -20 8
-24 -20 -39 -62 -32 -135 4 -164 81 -26 67 -13 99 43 104 6 0 22 -11 35 -26z
m577 -13 c31 -31 30 -83 -3 -117 -30 -33 -89 -32 -116 3 l-20 26 47 54 c26 30
53 54 60 54 6 0 21 -9 32 -20z m-990 -119 c0 -41 -2 -72 -4 -70 -2 2 -6 42
-10 89 -4 58 -3 80 4 70 5 -8 10 -48 10 -89z m-65 38 c-5 -7 -12 -6 -23 3 -15
12 -15 11 0 -13 9 -14 19 -44 22 -65 l6 -39 -11 35 c-6 19 -19 46 -30 61 -24
34 -24 39 1 39 11 0 20 6 20 13 0 6 5 4 11 -6 5 -9 7 -22 4 -28z m10 -106 c12
16 13 16 11 -7 -1 -34 -18 -33 -61 5 -19 17 -35 28 -35 25 0 -19 43 -85 74
-115 39 -37 48 -66 19 -57 -10 3 -31 8 -47 12 -27 6 -28 6 -16 -16 10 -18 14
-20 22 -9 8 11 9 10 4 -4 -3 -11 6 -31 27 -54 18 -20 28 -34 22 -31 -13 8
-116 -9 -127 -20 -6 -6 13 -10 45 -10 60 0 103 -18 156 -65 19 -16 51 -36 70
-45 34 -14 35 -15 14 -23 -36 -13 -27 -20 17 -13 39 6 55 -6 29 -21 -6 -4 -8
-14 -5 -22 4 -9 2 -11 -5 -7 -7 4 -10 1 -7 -7 2 -8 19 -15 36 -17 35 -4 76 14
67 28 -3 6 0 7 7 5 7 -3 21 -24 32 -48 l19 -42 10 33 c5 17 13 32 16 32 9 0
74 -61 92 -85 8 -11 -10 0 -38 24 l-53 43 0 -41 c0 -53 -22 -54 -52 -2 l-22
38 -68 -5 c-53 -4 -68 -2 -69 9 -2 21 -2 22 5 44 5 17 1 20 -27 20 -26 0 -32
4 -32 22 -1 22 -55 76 -105 104 -14 7 -54 16 -90 19 -52 4 -65 9 -68 23 -3 13
10 23 48 40 l52 23 -47 52 -47 52 47 0 47 0 -24 33 c-40 54 -61 121 -43 139 3
3 24 -13 46 -36 38 -37 42 -39 54 -23z m1156 4 c-6 -6 -11 -31 -11 -56 -1 -57
-23 -115 -33 -88 -4 11 -3 16 3 12 6 -3 10 1 10 9 0 9 -4 16 -8 16 -5 0 -15
14 -23 32 -15 31 -15 32 20 64 20 18 40 30 44 27 5 -3 4 -10 -2 -16z m369 -21
c0 -3 -4 -8 -10 -11 -5 -3 -10 -1 -10 4 0 6 5 11 10 11 6 0 10 -2 10 -4z
m-1520 -36 c18 -12 2 -12 -25 0 -13 6 -15 9 -5 9 8 0 22 -4 30 -9z m1495 -89
c3 -5 2 -12 -3 -15 -5 -3 -9 1 -9 9 0 17 3 19 12 6z m-1472 -128 c-7 -2 -21
-2 -30 0 -10 3 -4 5 12 5 17 0 24 -2 18 -5z m58 -11 c-7 -2 -18 1 -23 6 -8 8
-4 9 13 5 13 -4 18 -8 10 -11z m60 -29 c13 -16 12 -17 -3 -4 -10 7 -18 15 -18
17 0 8 8 3 21 -13z m-12 -37 c-3 -3 -11 5 -18 17 -13 21 -12 21 5 5 10 -10 16
-20 13 -22z m1201 -2 c0 -8 -19 -13 -24 -6 -3 5 1 9 9 9 8 0 15 -2 15 -3z
m-1089 -117 c-10 -9 -11 -8 -5 6 3 10 9 15 12 12 3 -3 0 -11 -7 -18z m686 -72
c-6 -35 -5 -35 11 -15 17 21 17 21 17 -7 0 -15 4 -46 7 -68 l7 -40 -16 38
c-10 24 -22 37 -34 37 -14 0 -19 7 -19 30 l0 30 -39 -20 c-63 -32 -135 -36
-208 -11 -70 24 -76 25 -69 12 12 -19 -7 -43 -30 -38 -22 4 -24 1 -25 -37 -1
-39 -1 -38 -14 19 -6 33 -16 69 -21 80 -7 17 -2 15 25 -8 37 -31 49 -30 31 2
-14 28 6 28 85 0 77 -27 172 -23 230 8 59 32 69 30 62 -12z"/>
<path d="M974 1121 c4 -5 0 -12 -6 -14 -10 -4 -10 -6 0 -6 21 -2 53 -89 47
-130 l-5 -36 21 40 c11 22 18 30 16 18 -6 -27 9 -31 15 -5 3 10 -3 34 -13 53
l-19 34 5 -30 c3 -19 -1 -14 -10 14 -8 24 -20 49 -26 57 -13 15 -34 19 -25 5z"/>
<path d="M1211 1116 c-6 -8 -18 -33 -25 -57 -11 -34 -14 -38 -15 -19 -2 23 -3
23 -17 -9 -14 -34 -14 -35 16 -63 39 -35 42 -35 29 -1 -13 36 6 108 35 128 11
8 15 15 8 15 -7 0 -10 5 -7 10 9 15 -11 12 -24 -4z"/>
<path d="M1082 973 c-6 -21 -21 -56 -32 -77 -11 -22 -18 -41 -16 -44 2 -2 18
4 36 13 26 13 36 14 65 4 40 -15 55 -7 33 18 -9 10 -28 42 -42 71 -14 28 -28
52 -30 52 -1 0 -8 -17 -14 -37z"/>
<path d="M1731 1094 c0 -11 3 -14 6 -6 3 7 2 16 -1 19 -3 4 -6 -2 -5 -13z"/>
<path d="M1525 649 c-4 -6 -5 -12 -2 -15 2 -3 7 2 10 11 7 17 1 20 -8 4z"/>
<path d="M1336 564 c-4 -14 -5 -28 -3 -31 3 -2 8 8 11 23 4 14 5 28 3 31 -3 2
-8 -8 -11 -23z"/>
<path d="M591 1184 c0 -11 3 -14 6 -6 3 7 2 16 -1 19 -3 4 -6 -2 -5 -13z"/>
<path d="M560 699 c12 -23 24 -39 26 -36 5 5 -35 77 -42 77 -3 0 5 -18 16 -41z"/>
</g>
</svg>
